/* XPM */
static char *_1c4933b95ba4d50838a9e6a16a3e7895lqByiAUJ8CiVaRi[] = {
/* columns rows colors chars-per-pixel */
"63 64 105 2 ",
"   c None",
".  c #020302",
"X  c #080707",
"o  c #060904",
"O  c #080B06",
"+  c #0C0C0B",
"@  c #100F0F",
"#  c #0F100D",
"$  c #10110E",
"%  c #0F0F10",
"&  c #151414",
"*  c #181716",
"=  c #161813",
"-  c #1A1917",
";  c #181719",
":  c #1B1B1A",
">  c #211F1D",
",  c #1C280E",
"<  c #1F201C",
"1  c #22201E",
"2  c #252422",
"3  c #282725",
"4  c #272824",
"5  c #2A2927",
"6  c #282729",
"7  c #2C2B29",
"8  c #312E2D",
"9  c #32312E",
"0  c #362F35",
"q  c #363034",
"w  c #383634",
"e  c #3B3936",
"r  c #3E3C39",
"t  c #413F3C",
"y  c #304718",
"u  c #334919",
"i  c #3E5B1F",
"p  c #43413E",
"a  c #557D2A",
"s  c #5C753E",
"d  c #464441",
"f  c #484643",
"g  c #4B4945",
"h  c #4E4C48",
"j  c #514E4B",
"k  c #54524E",
"l  c #575451",
"z  c #585652",
"x  c #5B5854",
"c  c #5B5954",
"v  c #5B5855",
"b  c #5B5955",
"n  c #5A5854",
"m  c #5C5956",
"M  c #5D5A57",
"N  c #5A5854",
"B  c #5E5B59",
"V  c #605D5B",
"C  c #605D5C",
"Z  c #625E5D",
"A  c #625E5D",
"S  c #5A6648",
"D  c #5E6054",
"F  c #626655",
"G  c #656B56",
"H  c #676F57",
"J  c #63605F",
"K  c #687157",
"L  c #6A7458",
"P  c #6F7D5A",
"I  c #707E5A",
"U  c #707F5A",
"Y  c #5F5C61",
"T  c #605D62",
"R  c #656166",
"E  c #656268",
"W  c #676368",
"Q  c #686569",
"!  c #6F6B72",
"~  c #726F72",
"^  c #726F73",
"/  c #726E73",
"(  c #757175",
")  c #757176",
"_  c #777478",
"`  c #7A767B",
"'  c #79757C",
"]  c #7A767D",
"[  c #78747B",
"{  c #7C787E",
"}  c #7C787D",
"|  c #57802C",
" . c #57812C",
".. c #6E8F47",
"X. c #7A8F5D",
"o. c #7C935E",
"O. c #7DA64E",
"+. c #819B5F",
"@. c #96BE65",
"#. c #98C167",
"$. c #98C266",
"%. c #98C267",
"&. c #9AC568",
"*. c #837E86",
"=. c #837E86",
/* pixels */
"0 0 q q q q q q q 0 q 0 0 q q 0 q q 0 0 0 0 q q q q q 0 q 0 0 0 0 0 0 0 0 w 0 0 q q q q q q q q 0 q q q q q q q q 0 q q q q 0 ",
"                                                                                                                              ",
"                                                                                                                              ",
"                        . . . . . . . o                                               . . . . . . . .                         ",
"                        . X 2 2 2 2 2 <                                               2 2 2 2 2 > . .                         ",
"                        . * z z N z n q . .                                       . . d N z N N k + .                         ",
"                        . - z z z z N p 3 :                                       2 7 h z z z z j + .                         ",
"                        . * k z z z z z m 9 . O       | a                     O . p N z z z z z j + .                         ",
"                        . * l z z z z l z p 7 1 o                           O 3 7 h N z z z z N k + .                         ",
"                        . * z z z z z z z z m 7 .         a a             . . p n z z z z z z z j X .                         ",
"                          * 3 w z z z z z z z d 7 : .     a a           . 3 9 h z z z z z z k 9 3 X                           ",
"                            . - z z z z z z z z m 7 .     a a         O . t n z z z z z z z k # .                             ",
"                              * 2 e z z z z z z N 5 . . O i a         O . r n z z z z z k 8 2 =                               ",
"                                . 2 z z z z z z N 5 . . . u a         X . r m n z z z z k & .                                 ",
"                            . * 9 t z z z z z z z 5 . , u i                   n z z z z k e 9 # .                             ",
"                            . - z z z z z z z z z 5 . y  .                    n z z z z z n k # .                             ",
"                        o - 9 p N z z z z z z z z S s ..O.                    +.o.F k z l x k e 8 $ o                         ",
"                        . * k N z z N k z z z z z X.&.$.$.$.                  $.@.K z z z z z x j + .                         ",
"                    . & w p k z z z z z z z z z z F P P P K N N N z z z z N H I I V z z x z z z k r 9 . .                     ",
"                    . * k N N z z z z z z z z z z z z l z z z z z z z z z z z z l l z z z z x z N m h X .                     ",
"    O . o O     . . . & k l z z z z z z z z z z z z z z z z z z z z z z l N l l z l z l l x z z N N g O . . .     o o .       ",
"    . . . .     . . . * k z z z z z z z z z N k z z z z z z z z z z z z N l l N l x l N x z x z z z h X . . .     . . . o     ",
"            . . . + w p z z z z z z z z z z z z z z z z z z k z z z z z l N l N l N N l x z x x N z k r 8 . . . .             ",
"            . . . & k z z z z z z z z z z z z z z z z z z z z z z z z z N l z l N l z z z z k x z z z m g X . . o             ",
"    O o . O     . & k z z z l z k z z z z z z z z z z z z z z z z z z z z z z z x k x z z z x k z z n n g X .     O . . O     ",
"    . . . .     . & k z z z z z N z z z z z z z z z z z z z z z z z z z z z z z z z z z z z z z z n z n g . .     . . . o     ",
"            . . . & k z z z z z z z z z z z z z z z z z z z z z z z z k z z z z x l z z z z z z z z z n g X . . .             ",
"            . . . & k z z z z z z z z z z z k z z z z z z z z z z z z z z z z z l z z z z z z l z z z n g X . . o             ",
"    o . . o . X e p z z z z z z z z z z z z z z z z z z z z z z z z z z z z z z x l z z z z z z z z z x k p q . . . . . O     ",
"    . . . . . $ k z z z z z z z z z z z z z z z z z z z z z z z z z z z z z z z z z z z z z z z z z z z z m f O . . . . o     ",
"            . & k z z z z z z z z z z z z z z z z z z z z z z z z z z k z z z z x l z z z z z z z z x z z n f . .             ",
"            . & k z z z z z z z z z k N z z z z z z z k z z z z z z z z z z z z l z z z z z z z z z x z n n f X O             ",
"        . & t f z z z z z z z z l z n n z z l n z l z z z z z z z z z z z z z z z n z z z n z z n z z n z z k d w O .         ",
"        . $ j x z z z z z z z z n z l n l l n z z z z l z z z z z z z z z z z z z z n n n z n n z n n l z z z n d . .         ",
"        . + j z z z z z z z z z l z n l n z l z z z z z z z z z z z z z z z z z z z z z z z z z z z z l z z z z d . .         ",
"        . & k z z z x z z z z z z z z l n l n l z z z l z z z z z z z z z z z z z z z z z z z z z z l n z z z n f + .         ",
"    o $ p f z z z C ` ( n z z z z n l z l z l n l z z z z z z z l z l z z z z z z z z z z z z z z z z z z z z z k f e O O     ",
"    . + j x z z z T ` ~ n z z z z l n l n l n l z z z z z z z z z z z z z z z z z z l z z z z z n l z k k z n n z m p . o     ",
"    . + j z z C { T : 7 z z z z z z z l l n z z z z l z z z z z z z z z l z z z z z z z z z z z z n h = 2 ^ ) n z z p . .     ",
"    . @ k m z C =.R X ; z z z z z l z n z z z z l z z z z k z z l z z z z z z l z z z l z z z l z z g o & ' { n z m d . o     ",
"    . & ! ) z C =.E X ; z n z n z l z l n z l D z z z l N l z z z z z z z l z z z z z l l z z z n n g X & ' { z C } T . .     ",
"    . * ! ^ V A [ Y + : l n n z l n z z l z l l l N z z l N z z z z z l z z z z z z z z n z n l n v g % ; ! ) M C ' Y . O     ",
"        & 6 _ Q - 2 f h n z n z z z l z z z z z N l z z z z z N z z z z z l l z n l z z l z z z l n l g p ; 6 _ Q : &         ",
"        . ; ~ T O & z N z n z n z z n l z z z z l z z z z z k N z z l z z z z z z z z z n z z l l l l n g X & ! T O .         ",
"            * + . * k N z n D z l z z z z z z z z z z z l x x l z z z z z z z z z z l n l l l z n z z n g X . & *             ",
"            . . . * k N z z z z z z z z l z z z l z z z z k j k j l z z z z z z z l n l z n n z l z l n g X . . .             ",
"                . & l z n z z z z z z z z l z z z z l l x e 3 3 4 f z z z z z l z z z n l n l z z z z n g . .                 ",
"                . & k n n n z z z z z z z z z z z z z k j w > 1 1 t k l z l z z z z z l n l z z z z z z g . .                 ",
"                . & k m N N z z z z l z z z l z z n n e 3 2 > 1 1 2 5 f z z z z z z z z z z k z l z z n g . .                 ",
"                . & k z N z z z z z z z z z z n z j h w > > > 1 1 1 1 t j z z z z z z z z z z z z z z z g X .                 ",
"                . & j z z z z z l z z z z z z l z r 3 2 1 1 1 1 1 1 1 2 4 g z z z z z z z z z z z z z n f X .                 ",
"                . & k z z z z z z z z z z l z z z e 2 : 1 1 1 > 1 1 1 1 1 d z z z z z z z z z z z l z z g . .                 ",
"                . & k N z z z z z z z z z z z z n r > 1 1 1 1 1 1 1 1 1 2 f z z z z z z z z z z z l n n f X .                 ",
"                . * p g z z z z z z z z z z z z z e > 1 1 1 1 1 1 1 1 1 1 f z z z z z z l z z z z n l f e + o                 ",
"                    . : z m z z z z z z z z z z z r : 1 1 > 1 1 > 1 1 1 1 f z z z k z z z z z z z z h + X                     ",
"                    . & p g z z z z z z z z z z z r 1 1 1 1 1 1 1 1 1 1 1 f z z z z z z z z z z l d r X .                     ",
"                        . : x N z z z z z z z z x e > > > 1 1 > 1 1 1 > 1 f x z z z z z z z z x j & .                         ",
"                        O : p g z z z z z z z z z t 8 3 1 1 1 > 1 1 1 5 8 g z z z z z z z z l f r # .                         ",
"                            . 1 z n z n z z z z x l l e > 2 2 > 1 1 2 f z z x z z z z N x z k $ .                             ",
"                            . : r d d t d p d t p t t 8 - - : : * * * 9 p p p t p p p p t p r @ .                             ",
"                                X X X X X X . X X X X . . . O . . . . . . . . . . . . . . . .                                 ",
"                                O O O O O X X O O X O O o O O . . O O . . . o . . . O . o . O                                 ",
"                                                      . . . . . . . . . .                                                     ",
"                                                                                                                              "
};
