/* XPM */
static char *_001[] = {
/* columns rows colors chars-per-pixel */
"64 64 26 1 ",
"  c #65903F",
". c #689B3C",
"X c #699D3D",
"o c #6BA03E",
"O c #6CA23F",
"+ c #6DA23F",
"@ c #669240",
"# c #699642",
"$ c #699840",
"% c #6A9A41",
"& c #6B9843",
"* c #6E9E43",
"= c #6EA540",
"- c #6FA144",
"; c #70A841",
": c #71A842",
"> c #72AA42",
", c #73AA43",
"< c #74AD43",
"1 c #76B044",
"2 c #77B046",
"3 c #78B345",
"4 c #79B347",
"5 c #7AB646",
"6 c #7CB947",
"7 c #7EBC49",
/* pixels */
" @#%%%%%%%%%%%%&%%%%%%%%%%%&%%%%%%%%%%%&%%%%%%%%%%%&%%%%%%%%%#@ ",
"%%*----------------------------------------------------------*%%",
"::133333333333344333333333344333333333344333333333344333333331::",
"1367777777777777777777777777777777777777777777777777777777777631",
"1367777777777777777777777777777777777777777777777777777777777631",
"1367777777777777777777777777777777777777777777777777777777777631",
"1367777777777777777777777777777777777777777777777777777777777631",
"1367777777777777777777777777777777777777777777777777777777777631",
"1367777777777777777777777777777777777777777777777777777777777631",
"1367777777777777777777777777777777777777777777777777777777777631",
"1367777777777777777777777777777777777777777777777777777777777631",
"1367777777777777777777777777777777777777777777777777777777777631",
"1367777777777777777777777777777777777777777777777777777777777631",
"1367777777777777777777777777777777777777777777777777777777777631",
"1367777777777777777777777777777777777777777777777777777777777631",
"1367777777777777777777777777777777777777777777777777777777777631",
"1367777777777777777777777777777777777777777777777777777777777631",
"1367777777777777777777777777777777777777777777777777777777777631",
"1367777777777777777777777777777777777777777777777777777777777631",
"1367777777777777777777777777777777777777777777777777777777777631",
"1367777777777777777777777777777777777777777777777777777777777631",
"1367777777777777777777777777777777777777777777777777777777777631",
"1367777777777777777777777777777777777777777777777777777777777631",
"1367777777777777777777777777777777777777777777777777777777777631",
"1367777777777777777777777777777777777777777777777777777777777631",
"1367777777777777777777777777777777777777777777777777777777777631",
"1367777777777777777777777777777777777777777777777777777777777631",
"1367777777777777777777777777777777777777777777777777777777777631",
"1367777777777777777777777777777777777777777777777777777777777631",
"1367777777777777777777777777777777777777777777777777777777777631",
"1367777777777777777777777777777777777777777777777777777777777631",
"1367777777777777777777777777777777777777777777777777777777777631",
"1367777777777777777777777777777777777777777777777777777777777631",
"1367777777777777777777777777777777777777777777777777777777777631",
"1367777777777777777777777777777777777777777777777777777777777631",
"1367777777777777777777777777777777777777777777777777777777777631",
"1367777777777777777777777777777777777777777777777777777777777631",
"1367777777777777777777777777777777777777777777777777777777777631",
"1367777777777777777777777777777777777777777777777777777777777631",
"1367777777777777777777777777777777777777777777777777777777777631",
"1367777777777777777777777777777777777777777777777777777777777631",
"1367777777777777777777777777777777777777777777777777777777777631",
"1367777777777777777777777777777777777777777777777777777777777631",
"1367777777777777777777777777777777777777777777777777777777777631",
"1367777777777777777777777777777777777777777777777777777777777631",
"1367777777777777777777777777777777777777777777777777777777777631",
"1367777777777777777777777777777777777777777777777777777777777631",
"1367777777777777777777777777777777777777777777777777777777777631",
"1367777777777777777777777777777777777777777777777777777777777631",
"1367777777777777777777777777777777777777777777777777777777777631",
"1367777777777777777777777777777777777777777777777777777777777631",
"1367777777777777777777777777777777777777777777777777777777777631",
"1367777777777777777777777777777777777777777777777777777777777631",
"1367777777777777777777777777777777777777777777777777777777777631",
"1367777777777777777777777777777777777777777777777777777777777631",
"1367777777777777777777777777777777777777777777777777777777777631",
"1367777777777777777777777777777777777777777777777777777777777631",
"1367777777777777777777777777777777777777777777777777777777777631",
"1367777777777777777777777777777777777777777777777777777777777631",
"1367777777777777777777777777777777777777777777777777777777777631",
"1367777777777777777777777777777777777777777777777777777777777631",
":<355555555555555555555555555555555555555555555555555555555553<:",
"o+::::::::::::::::::::::::::::::::::::::::::::::::::::::::::::+o",
".X+==========================================================+X."
};
