/* XPM */
static char *_002[] = {
/* columns rows colors chars-per-pixel */
"64 64 220 2 ",
"   c #08090A",
".  c #09150F",
"X  c #07110C",
"o  c #0A1613",
"O  c #0C1B15",
"+  c #0A171A",
"@  c #1D1811",
"#  c #0B0E10",
"$  c #221C13",
"%  c #0E2218",
"&  c #182717",
"*  c #1C331F",
"=  c #2A1C",
"-  c #081928",
";  c #0B1E31",
":  c #15292B",
">  c #153524",
",  c #173829",
"<  c #0B243E",
"1  c #0E2B3C",
"2  c #0C2334",
"3  c #112E3C",
"4  c #162C34",
"5  c #163D",
"6  c #13333C",
"7  c #153A3E",
"8  c #1C3C3C",
"9  c #193638",
"0  c #0C2D",
"q  c #263B2A",
"w  c #21373C",
"e  c #223B3C",
"r  c #2A3533",
"t  c #333A37",
"y  c #4B352A",
"u  c #57392B",
"i  c #5E3A31",
"p  c #623D",
"a  c #1B452D",
"s  c #1D492E",
"d  c #1A43",
"f  c #1F4D33",
"g  c #1B433E",
"h  c #1D493B",
"j  c #25482E",
"k  c #25522F",
"l  c #3E5B20",
"z  c #36552C",
"x  c #234D34",
"c  c #22443B",
"v  c #224B3C",
"b  c #2B4837",
"n  c #344B35",
"m  c #235333",
"M  c #265B33",
"N  c #2C5C",
"B  c #28553A",
"V  c #355130",
"C  c #365B37",
"Z  c #344D27",
"A  c #2C6334",
"S  c #2E6C3C",
"D  c #2C673B",
"F  c #3365",
"G  c #3A6534",
"H  c #3A6931",
"J  c #3B623A",
"K  c #35693A",
"L  c #733B",
"P  c #35793A",
"I  c #3C7B3D",
"U  c #387336",
"Y  c #38672F",
"T  c #31471E",
"R  c #5C452C",
"E  c #475B35",
"W  c #4F4C31",
"Q  c #61452E",
"!  c #625C",
"~  c #654333",
"^  c #694634",
"/  c #6B4A34",
"(  c #664A30",
")  c #734C38",
"_  c #6D5431",
"`  c #695A34",
"'  c #735436",
"]  c #745A34",
"[  c #795E36",
"{  c #7C563A",
"}  c #456A2B",
"|  c #4C722C",
" . c #436837",
".. c #4A7435",
"X. c #4D7C35",
"o. c #467636",
"O. c #527E35",
"+. c #537F3F",
"@. c #5A6D",
"#. c #7B6237",
"$. c #796538",
"%. c #6B6536",
"&. c #183F40",
"*. c #163540",
"=. c #122D40",
"-. c #243C42",
";. c #1A4440",
":. c #1E4B40",
">. c #294748",
",. c #295942",
"<. c #345548",
"1. c #314E57",
"2. c #395A53",
"3. c #525B",
"4. c #3B5A5D",
"5. c #2F4D4C",
"6. c #2A6341",
"7. c #2E6A41",
"8. c #357B41",
"9. c #347841",
"0. c #386746",
"q. c #375B64",
"w. c #3E6672",
"e. c #3B626D",
"r. c #486E4F",
"t. c #456D78",
"y. c #46737E",
"u. c #4C7177",
"i. c #825C3D",
"p. c #836D39",
"a. c #816539",
"s. c #3B853D",
"d. c #3D8B3E",
"f. c #5C8A2F",
"g. c #58852C",
"h. c #438C3D",
"j. c #4A863A",
"k. c #538235",
"l. c #558A34",
"z. c #5A8B33",
"x. c #58893B",
"c. c #4A953D",
"v. c #48973F",
"b. c #5D9335",
"n. c #539D3D",
"m. c #5B9C39",
"M. c #579438",
"N. c #618D33",
"B. c #6395",
"V. c #659A34",
"C. c #699D34",
"Z. c #679A3B",
"A. c #55A13E",
"S. c #6CA036",
"D. c #6DA23A",
"F. c #69A53C",
"G. c #71A63B",
"H. c #74A93D",
"J. c #3B8441",
"K. c #3E8B41",
"L. c #468945",
"P. c #439441",
"I. c #459B42",
"U. c #4B9C41",
"Y. c #4D9744",
"T. c #579C45",
"R. c #5D8A4C",
"E. c #689646",
"W. c #68944E",
"Q. c #4AA042",
"!. c #56A346",
"~. c #6AA646",
"^. c #79AA46",
"/. c #7EB344",
"(. c #7AB44D",
"). c #7AAC59",
"_. c #7EB754",
"`. c #6CAA4D",
"'. c #86BA4C",
"]. c #83B84A",
"[. c #84B857",
"{. c #80AF4B",
"}. c #8CC455",
"|. c #93CA55",
" X c #93C857",
".X c #9BD35B",
"XX c #8BC14E",
"oX c #A2D961",
"OX c #A0D85E",
"+X c #497784",
"@X c #527E8B",
"#X c #558A96",
"$X c #51838B",
"%X c #5B95A5",
"&X c #5E9AAA",
"*X c #5E97A8",
"=X c #639BAC",
"-X c #629FB1",
";X c #63A2B4",
":X c #69A4B5",
">X c #66A7B9",
",X c #6DADBF",
"<X c #6AABBE",
"1X c #67A8BB",
"2X c #6AAEC1",
"3X c #6DB2C5",
"4X c #6FB5C9",
"5X c #70B8CC",
"6X c #70B6CB",
"7X c #74BED3",
"8X c #74BED3",
"9X c #77C0D5",
"0X c #76C1D6",
"qX c #76C1D6",
"wX c #7AC7DC",
"eX c #79C6DB",
"rX c #7BC9DE",
"tX c #77C3D9",
"yX c #7CCAE0",
"uX c #7CCAE0",
/* pixels */
"=X=X;X:X:X:X:X:X:X:X:X:X:X:X:X:X:X:X:X:X:X@Xw #                 # w @X:X:X:X:X:X:X:X:X:X:X:X:X:X:X:X:X:X:X:X:X:X:X:X:X:X:X;X=X=X",
":X:X<X,X,X,X,X,X,X,X,X,X,X,X,X,X,X:X%X#X#Xt.t & & & & & & & & & & t t.#X#X%X:X,X,X,X,X,X,X,X,X,X,X,X,X,X,X,X,X,X,X,X,X,X,X<X:X:X",
"4X5X7X0X0X0X0X0X0X0X0X0X0X0X0X0X0X>Xt.3.1.<.z l l l l l l l l l l z <.1.3.t.>X9X0X0X0X0X0X0X7X7X0X0X0X0X0X0X0X0X0X0X0X0X0X7X5X4X",
"7X0XwXyXyXyXyXyXyXyXyXyXyX0X2X>X>X#X2.b b V | g.z.N.N.N.N.N.N.N.N.O.E n b 2.#X>X>X2X0XyXyXyXyXyXyXyXyXyXyXyXyXyXyXyXyXyXyXwX0X7X",
"7X0XwXyXyXyXyXyXyXyXyXyXrX2X+Xq.q.2.J } } | g.V./.'.'.'.'.'.'.'.'.^.E.x...J 2.q.q.+X2XyXyXyXyXyXyXyXyXyXyXyXyXyXyXyXyXyXyXwX0X7X",
"7X0XwXyXyXyXyXyXyXyXyX0X2X#X4.b b V | g.z.B.G./.|..X|.|.|.|.|.|..X.X[.^.Z.O.E n C r.#X;X;X;X;X<X0XyXyXyXyXyXyXyXyXyXyXyXyXwX0X7X",
"7X0XwXyXyXyXyXyXyXyXyX2X+X2. .} } | g.C./.'.}.|..X.X'.]./././.'..XoXoX.X}.{.E.W.W.R.r.3.3.3.3.y.<XyXyXyXyXyXyXyXyXyXyXyXyXwX0X7X",
"7X0XwXyXyXyXyXyXyX0X2X$X>.q } O.g.f.C./.|..X|.|..X|./.H.G.G.G./.|..X.X.X|.}.'.].[.^. .n n n b 2.#X;X;X;X;X2X0XyXyXyXyXyXyXwX0X7X",
"7X0XwXyXyXyXyXyXyX2X+X>.: & } f.B.S.].|..X.XXX].]./.G.S.S.S.S.G./.].].].]././.]. X}.^.E.E.R...G <.3.3.3.q.+X2XyXyXyXyXyXyXwX0X7X",
"7X0XwXyXyX0X<X;X;X#X2.j * T f.G.H.].|..X.X|./.H.G.G.C.C.C.C.C.C.G.G.G.G.G.G.H./.|.|.'.{.{.^.N.| V j j j b 2.#X1X0XyXyXyXyXwX0X7X",
"7X0XwXyXyX<Xy.3.1.<. ...x.E.].}.}.|.OX.XXX/.G.S.S.C.C.C.C.C.C.C.C.S.S.S.S.S.S.G././.^.^.^.G.V.f.| } } } }  .2.y.<XyXyXyXyXwX0X7X",
"7X0XwX0X<X#X2.q q Z | N.^.'.}.|.|.|..X|./.S.B.z.z.z.z.z.V.C.C.C.C.C.C.C.C.C.C.C.S.G.G.G.G.S.C.B.f.g.g.g.g.| V 2.#X<X0XyXyXwX0X7X",
"7X0XwX<Xy.2. .} } | f.V.G.^././././.]./.G.B.X.H H H H o.z.V.C.C.C.C.C.C.C.C.C.C.C.C.C.C.S.C.C.V.B.B.B.B.B.f.|  .2.y.<XyXyXwX0X7X",
"7X4X1X#X2.V | g.g.f.B.C.D.D.D.G.G.G.G.C.b.X.F N A N m N X.z.z.z.z.z.z.z.z.z.z.z.z.z.z.z.z.z.z.z.z.z.V.C.C.B.g.} q 1.;XyXyXwX0X7X",
"7X;Xy.2. .| f.B.B.B.V.V.A.A.F.S.S.S.S.b.o.F k M L S h d N H H H H H H H H H H H H H H H H H H H H X.b.C.V.B.M.H * >.=XyXyXwX0X7X",
"%X$X<.V | f.B.B.z.z.z.l.j.j.l.z.z.z.z.X.F m d f S S v h M A A F F F F F F A A N m x x k N F F F N H l.b.l.l.c.U > 8 @X1X7XwX0X7X",
">.5.G | f.B.V.z.o.H H F F F F H H H H F k d 5 7 g B 7.P s.s.s.s.s.s.s.s.s.s.s.S h 6 6 x  .k.k.o.N A h.j.K K h.P , 2 >.t.1XwX0X7X",
"+ & z ..O.l.b.l.U F A A A A A A A N m f d 5 1 1 1 g 6.8.h.c.c.c.c.c.c.c.v.K.J.D 7 1 1 8 G ....H m m L 7.v g 7.D 6 ; 0 1.-XwX0X7X",
"  o , b v J j.c.h.s.s.s.s.s.s.s.s.L h 6 6 1 < < < 3 g B j.m.m.m.m.m.m.m.v.J.,.g 1 < < 3 c b b c 7 7 g g 6 6 g g 1 ; + >.&XwX0X7X",
": : : 4 3 g S K.P.P.c.c.c.U.!.Y.K.S 7 3 8 8 8 *.1 < 1 c G k.M.m.m.m.m.n.U.J.:.1 < < < < 3 6 6 3 1 1 1 1 < < 1 1 ; 2 4 q.>XwX0X7X",
"+Xe.9 - 2 3 g 6.J.U.n.m.m.~.(.`.0.g 6 9 C  .L ,.*.=.=.6 c J h.n.n.A.A.U.U.8.;.< < < < < < < < < < < < < < < < 2 - 4 w.%X5XwX0X7X",
"1X#X3.9 2 2 1 g 7.s.j.k.k.x.`.R.,.7 8 B o.l.c.I B 8 3 < 3 g S J.K.K.K.K.J.7.7 < < 1 7 &.&.7 7 7 6 3 8 8 8 8 8 : + w #X5XeXwX0X7X",
"4X1X%Xt.9 - 2 1 g v v v v B <.,.*.8 C X.c.n.m.M.X.J 8 < < 3 g h v v v h :.;.=.< < 7 6.9.9.9.9.D f x G ....o. .z & -.%XeXrXwX0X7X",
"7X8X5X#X-.+ : 8 c g 7 3 3 3 *.=.< 8 o.M.n.U.m.m.M.X.B 8 1 < 1 1 1 1 1 7 g c g 9 1 ;.9.P.s.s.P.s.S F o.X.k.k.z.| Z <.$X1X7XwX0X7X",
"7X7XtX%X-.& z  ...J 8 3 < < < < < 8 I v.U.Q.A.n.n.c.X.J 8 < < < < < < 8 J ....C 8 ;.8.d.L L d.P.s.P H F F o.z.Z.Z.r.2.t.1XwX0X7X",
"7X4X>X$Xb T | z.b.O.C 8 3 < < < < 7 7.K.I.I.h.h.h.h.j. .B g 8 &.&.7 g B X.b.Z.+.c 7 7.L M M L J.s.P S A F U M.F.(.E.C <.$X>X4X7X",
"7X;Xw.<.G | f.B.V.B.k.J 8 < < < < 1 8 6.K.h.P A A A N F L 9.9.9.9.9.9.J.P.~._.W.>.1 g g 7 7 g v M S I s.d.h.v.!.!.T.I K <.w.;X7X",
"%X+X-.q | z.B.V.V.C.D.x.C 8 6 6 8 e c B h.h.L A A M m A s.P.I.P.d.s.s.s.h.T._.`.0.7 3 1 < < 1 6 d m L 8.8.s.d.v.U.U.s.A > >.%X7X",
"-.8 2 q ..b.m.m.V.G.'.(.x. .x x G ....k.M.M.h.s.s.P M A s.I.I.d.L A A A A I T.!.J.6.7 < < < < < 1 6 g h h v A L h.h.S s % -.%X7X",
"  + - 8 o.n.n.A.m.F.XX'.G.l.H H k.z.O.k.b.b.h.s.s.P M A d.I.Q.h.L M m f m A s.P.P.I B 8 8 8 &.&.8 7 6 1 1 6 d M P L x , 9 q.&X7X",
"  # - 8 I v.U.Q.A.A.~.H.S.B.z.z.B.k.C C k.l.U A A M f M d.I.Q.I.d.P M f f m A U l.M.X.....o.I 9.9.6.7 < < 1 6 5 m x * w y.&X3X7X",
"    - 7 D K.P.U.n.n.M.z.z.k.X.X.O. .v v o.o.N m M M f m L J.J.J.8.S f x J K o.j.Z.G.V.B.B.b.n.U.!.L.0.>.;.7 1 3 d , O e %X8X8X7X",
"    - 1 7 ,.J.U.m.M.o.F F N b c c c d f N N k M P L h 6 g ;.;.g g g 7 ,.W.[.[.[.}.'.G.V.V.V.V.~._.}.).W.L.6.7 1 5 > O -.%XtX7X7X",
"4 4 ; ; 1 h L h.j.o.N x d 5 6 6 8 v k N K G K U 8.7.7 < < 1 1 1 1 1 1 >.R.[.}.}.[.^.Z.z.m.b.l.R.`.).).`.Y.9.g 4 , , 8 q.>XwX0X7X",
"$Xw.4 - : d M A A N k d 9 1 1 8 J X.k.b.^.[.[.W.0.g =.< < < < < =.=.< *.5.r.T.!.L.U G U j.h.C v <.<.<.0.L.s.m : % 8 y.;X8XwX0X7X",
"4X%Xq.9 , > > , s s d 5 1 3 9 B O.B.V.G.'.}.[.R.>.=.*.&.&.7 6 1 1 1 1 3 7 B K.h.A x x A d.K.,.8 *.*.;.,.P L s , 8 q.;XeXwXwX0X7X",
"5X3X&Xy.8 O . % > a 6 1 < 9 C X.z.V.V.S.H.E.r.5.*.7 6.9.9.S f 5 5 5 5 5 d M d.d.A s s A d.P.J.7.;.g 7.L A j & 8 y.;X5XwXrXwX0X7X",
"7X7X0X;Xq.4 o . > 5 1 < < 9 C ..X.O.O.k.k. .c 3 < 7 6.J.P.d.S M M m f f M S d.s.m d d m L J.8.6.7 7 M A s , e q.;XtXwXyXyXwX0X7X",
"7X0XeX5X;X+X4 o > 5 1 < < 1 8 c c c c c c 8 3 < < 1 7 ,.J.I.d.d.s.P m M P d.I.J.h 1 1 6 7 ;.;.7 1 2 % % O w +X;X5XwXrXyXyXwX0X7X",
"7X0XwXrXwX;Xq.w , > 0 ; 2 1 < *.>.<.<.>.8 3 1 1 1 1 1 h L h.U.!.!.h.M M P d.d.S 7 < < < < < 1 1 1 0 O X   -.&XwXrXyXrXyXyXwX0X7X",
"7X0XwXrXrX8X;X+Xw o # + : 6 1 >.R.).).W.C d 5 5 5 5 5 d M U T.`.`.T.F f M M M f 6 < < < < 1 5 5 5 , > % o -.&XrXrXyXyXyXyXwX0X7X",
"7X0XwXyXyXrXwX&X-.  X O > 5 1 >.R.).[.`.o.N x f s j V V V  .x.E.E.x. .V j s s 5 1 < < < < 1 5 a a a a > O -.&XyXyXyXyXyXyXwX0X7X",
"7X0XwXyXyXrXrX&X-.o % > 4 1 < =.>.<.J o.R.j.N f s V E %.%.@. .G G  .@.E V s s 5 1 < < < < 1 5 a a a a > O -.&XyXyXyXyXyXyXwX0X7X",
"7X0XwXyXyXyXyX&X-.O > 5 6 1 1 1 1 6 d N j.x.C n V E $.p.p.$.E V V E ` ` W j s d 6 1 1 1 1 4 : > > > > , e e.>XyXyXyXyXyXyXwX0X7X",
"7X0XwXyXyXyXyX&X-.O > a d d 5 5 5 d a x N C W W ` %.$.p.p.$.$.%.%.` / ~ R W j a 5 5 5 5 5 : O . . O O e +X>X7XyXyXyXyXyXyXwX0X7X",
"7X0XwXyXyXyXyX&X-.o % > a a s s s a , > > q R / ] #.p.p.p.p.p.p.#.' ~ i i y q > > > > > > , 9 w w e -.e.>XyXyXyXyXyXyXyXyXwX0X7X",
"7X0XwXyXyXyXyX&X-.o . % > a a a a > % o . & R ] / ' #.p.p.p.p.#._ ~ p p i y @ X . . . O O w +X&X&X&X&X>X7XyXyXyXyXyXyXyXyXwX0X7X",
"7X0XwXyXyXyXyX>Xe.-.e 9 , > > > > , 9 w w t W R ~ ^ ' [ #.#.a.[ ^ p ^ ^ ^ y @ # : w e e -.q.>XrXyXyXyXyXyXyXyXyXyXyXyXyXyXwX0X7X",
"7X0XwXyXyXyXyX7X>X&X&X+X-.% O O O 8 +X%X&X+Xt = y p ~ ^ ^ / { { ~ ^ ] #.[ R @ : +X&X&X&X&X>X7XyXyXyXyXyXyXyXyXyXyXyXyXyXyXwX0X7X",
"7X0XwXyXyXyXyXyXyXyXyX1Xw.>.-.-.-.q.;XwXrX&Xw @ y ^ p p p p ) ) ~ ^ #.p.p.! $ w &XyXyXyXyXyXyXyXyXyXyXyXyXyXyXyXyXyXyXyXyXwX0X7X",
"7X0XwXyXyXyXyXyXyXyXyX7X1X=X&X&X&X>X8XrXrX&Xw $ R ' ^ p p p ~ ~ p ^ #.a.a.Q $ w &XyXyXyXyXyXyXyXyXyXyXyXyXyXyXyXyXyXyXyXyXwX0X7X",
"7X0XwXyXyXyXyXyXyXyXyXyXyXyXyXyXyXyXyXyXyX&Xw $ ! #.^ p p p ^ ^ p ^ #.a.i.~ $ w &XyXyXyXyXyXyXyXyXyXyXyXyXyXyXyXyXyXyXyXyXwX0X7X",
"7X0XwXyXyXyXyXyXyXyXyXyXyXyXyXyXyXyXyXyXyX&Xw $ ! #.^ p p ~ ' ] ^ ^ #.a.i.~ $ w &XyXyXyXyXyXyXyXyXyXyXyXyXyXyXyXyXyXyXyXyXwX0X7X",
"7X0XwXyXyXyXyXyXyXyXyXyXyXyXyXyXyXyXyXyXyX&Xw $ ! #.) ~ p ^ #.#.^ ^ #.a.i.~ $ w &XyXyXyXyXyXyXyXyXyXyXyXyXyXyXyXyXyXyXyXyXwX0X7X",
"7X0XwXyXyXyXyXyXyXyXyXyXyXyXyXyXyXyXyXyXyX&Xw $ ! a.{ ) ~ ^ #.#.^ ^ [ a.i.~ $ w &XyXyXyXyXyXyXyXyXyXyXyXyXyXyXyXyXyXyXyXyXwX0X7X",
"7X0XwXyXyXyXyXyXyXyXyXyXyXyXyXyXyXyXyXyXyX&Xw $ ! a.i.{ ~ ^ #.#.^ ^ ' [ { Q $ w &XyXyXyXyXyXyXyXyXyXyXyXyXyXyXyXyXyXyXyXyXwX0X7X",
"7X0XwXyXyXyXyXyXyXyXyXyXyXyXyXyXyXyXyXyXyX&Xw $ ! a.i.{ ^ ^ [ [ ^ p ~ / { Q $ w &XyXyXyXyXyXyXyXyXyXyXyXyXyXyXyXyXyXyXyXyXwX0X7X",
"7X0XwXyXyXyXyXyXyXyXyXyXyXyXyXyXyXyXyXrXeX%Xw $ R ] { ) / _ ] ' ^ p p ~ ) u $ w %XeXwXyXyXyXyXyXyXyXyXyXyXyXyXyXyXyXyXyXyXwX0X7X",
"7X0XwXyXyXyXyXyXyXyXyXyXyXyXyXyXyXyXyXeX8X#Xw $ u ^ ~ / ] [ ' ^ ~ p p p p y $ e #X8XeXyXyXyXyXyXyXyXyXyXyXyXyXyXyXyXyXyXyXwX0X7X",
"7X0XwXyXyXyXyXyXyXyXyXyXyXyXyXyXyXrXeX4X*Xt.r = u ^ p ^ #.$.' / / / / ^ p y = n u.*X4XeXrXyXyXyXyXyXyXyXyXyXyXyXyXyXyXyXyXwX0X7X",
"7X0XwXyXyXyXyXyXyXyXyXyXyXyXyXyXyXeX8X*X4.t y u _ ] ^ ^ #.p.#.#.#.#.#.' ^ ~ ( W t 4.*X7XeXyXyXyXyXyXyXyXyXyXyXyXyXyXyXyXyXwX0X7X",
"5X5X0XeXeXeXeXeXeXeXeXeXeXeXeXeXeX4X%Xt.t = y ~ [ [ ^ ^ [ $.[ [ $.a.a.] ^ ^ [ _ = t t.%X4XeXeXeXeXeXeXeXeXeXeXeXeXeXeXeXeX0X5X5X",
"<X2X4X5X5X5X5X5X5X5X5X5X5X5X5X5X5X%X3.r y u u R _ ] Q Q ] ] ( ( ] #.] ) p Q ] ] Q y r 3.%X5X4X5X5X5X5X5X5X5X5X5X5X5X5X5X5X4X2X<X",
">X1X2X3X3X3X3X3X3X3X3X3X3X3X3X3X3X#X9 @ u ^ i i _ _ R R _ _ i R _ ] ' / i R _ ] ' u @ 9 #X3X3X3X3X3X3X3X3X3X3X3X3X3X3X3X3X2X1X>X"
};
