/* XPM */
static char *_003[] = {
/* columns rows colors chars-per-pixel */
"64 64 153 2 ",
"   c #223314",
".  c #263916",
"X  c #273819",
"o  c #373932",
"O  c #393B35",
"+  c #3D3D39",
"@  c #2E441B",
"#  c #30461C",
"$  c #36501F",
"%  c #3C4A2F",
"&  c #375320",
"*  c #395421",
"=  c #3D5A23",
"-  c #3D4434",
";  c #3F4B32",
":  c #3F403C",
">  c #404736",
",  c #404D33",
"<  c #41423D",
"1  c #444B3E",
"2  c #445334",
"3  c #465835",
"4  c #495D36",
"5  c #47533A",
"6  c #49563C",
"7  c #4C593F",
"8  c #436426",
"9  c #456628",
"0  c #476B29",
"q  c #4E613D",
"w  c #527435",
"e  c #567B36",
"r  c #587F37",
"t  c #567939",
"y  c #597D3A",
"u  c #454642",
"i  c #484B43",
"p  c #4B5740",
"a  c #4B5840",
"s  c #52534D",
"d  c #565650",
"f  c #5B5C55",
"g  c #5F5F58",
"h  c #4F6140",
"j  c #5F6554",
"k  c #606556",
"l  c #616856",
"z  c #63645C",
"x  c #656C5D",
"c  c #646461",
"v  c #676960",
"b  c #6A6C63",
"n  c #6E706C",
"m  c #737C65",
"M  c #767C6A",
"N  c #787F6B",
"B  c #5F8D37",
"V  c #5B8239",
"C  c #608F37",
"Z  c #609037",
"A  c #629239",
"S  c #67993C",
"D  c #699D3D",
"F  c #6CA13E",
"G  c #669240",
"H  c #699642",
"J  c #6B9843",
"K  c #6FA342",
"L  c #72AA42",
"P  c #76B044",
"I  c #79B446",
"U  c #7CB947",
"Y  c #7EBC49",
"T  c #778069",
"R  c #7A826C",
"E  c #7E8471",
"W  c #828776",
"Q  c #838976",
"!  c #84857B",
"~  c #838C7B",
"^  c #888A7F",
"/  c #878F80",
"(  c #8B8C82",
")  c #8E9283",
"_  c #919485",
"`  c #92978A",
"'  c #979A8C",
"]  c #9A9B8F",
"[  c #959A90",
"{  c #9D9E92",
"}  c #9FA194",
"|  c #A1A395",
" . c #A4A699",
".. c #A7A99C",
"X. c #AAAB9E",
"o. c #A5A7A2",
"O. c #ADAFA1",
"+. c #AAACA9",
"@. c #AEB0A1",
"#. c #B1B3A5",
"$. c #B3B4AB",
"%. c #BCBEAE",
"&. c #B4B5B2",
"*. c #BABAB9",
"=. c #BEC0B1",
"-. c #C4C6B5",
";. c #C2C3BD",
":. c #C7C9B9",
">. c #CACCBC",
",. c #C6C6C4",
"<. c #CCCDC3",
"1. c #CACAC8",
"2. c #CFD1C1",
"3. c #CFD0C8",
"4. c #D3D5C4",
"5. c #D6D8C7",
"6. c #D3D4CF",
"7. c #D7D9C8",
"8. c #DADCCB",
"9. c #DDDFD1",
"0. c #DDDEDB",
"q. c #DFE1D2",
"w. c #E0E1D5",
"e. c #E1E3D4",
"r. c #E1E3D6",
"t. c #E2E3D6",
"y. c #E2E3D6",
"u. c #E2E3DB",
"i. c #E4E5D9",
"p. c #E4E6D9",
"a. c #E4E6DA",
"s. c #E1E1DF",
"d. c #E4E5DD",
"f. c #E6E7DC",
"g. c #E7E8DC",
"h. c #E6E7E1",
"j. c #E8E9E1",
"k. c #E9EAE1",
"l. c #EAEBE6",
"z. c #EBECE7",
"x. c #EAEBE2",
"c. c #EAEBE8",
"v. c #EEEFE8",
"b. c #EFEFE8",
"n. c #ECECEA",
"m. c #EFF0EC",
"M. c #EFF0EB",
"N. c #F2F2EF",
"B. c #F3F3EF",
"V. c #F0F1ED",
"C. c #F5F5F1",
"Z. c #F6F6F2",
"A. c #F2F3F1",
/* pixels */
"A G H J J J J J J J J J J J J J J J J J J J J J J J J J J J J J J J J J J J J J J J J J J J J J J J J J J J J J J J J J J H G A ",
"J J J K K K K K K K K K K K K K K K K K K K K K K K K K K K K K K K K K K K K K K K K K K K K K K K K K K K K K K K K K K J J J ",
"L L P I I I I I I I I I I I I I I I I I I I I I I I I I I I I I I I I I I I I I I I I I I I I I I I I I I I I I I I I I I P L L ",
"P I U Y Y Y Y Y Y Y Y Y Y Y Y Y Y Y Y Y Y Y Y Y Y Y Y Y Y Y Y Y Y Y Y Y Y Y Y Y Y Y Y Y Y Y Y Y Y Y Y Y Y Y Y Y Y Y Y Y Y U I P ",
"P I U Y Y Y Y Y Y Y Y Y Y Y Y Y Y Y Y Y Y Y Y Y Y Y Y Y Y Y Y Y Y Y Y Y Y Y Y Y Y Y Y Y Y Y Y Y Y Y Y Y Y Y Y Y Y Y Y Y Y U I P ",
"P I U Y Y Y Y Y Y Y Y Y Y Y Y Y Y Y Y Y Y Y Y Y Y Y Y Y Y Y Y Y Y Y Y Y Y Y Y Y Y Y Y Y Y Y Y Y Y Y Y Y Y Y Y Y Y Y Y Y Y U I P ",
"P I U Y Y Y Y Y Y Y Y Y Y Y Y Y Y Y Y Y Y Y Y Y Y Y Y Y Y Y Y Y Y Y Y Y Y Y Y Y Y Y Y Y Y Y Y Y Y Y Y Y Y Y Y Y Y Y Y Y Y U I P ",
"P I U Y Y Y Y Y Y Y Y Y Y Y Y Y Y Y Y Y Y Y Y P F F P Y Y Y Y Y Y Y Y Y Y P F F P Y Y Y Y Y Y Y Y Y Y Y Y Y Y Y Y Y Y Y Y U I P ",
"P I U Y Y Y Y Y Y Y Y Y Y Y Y Y Y Y Y Y Y Y Y F 0 0 D U Y Y Y Y Y Y Y Y U D 0 0 F Y Y Y Y Y Y Y Y Y Y Y Y Y Y Y Y Y Y Y Y U I P ",
"P I U Y Y Y Y Y Y Y Y Y Y Y Y Y Y Y Y Y Y P D V 4 4 V D P Y Y Y Y Y Y P D V 4 4 V D P Y Y Y Y Y Y Y Y Y Y Y Y Y Y Y Y Y Y U I P ",
"P I U Y Y Y Y Y Y Y Y Y Y Y Y Y Y Y Y Y Y D 9 4 m m 4 9 D U Y Y Y Y U D 9 4 m m 4 9 D Y Y Y Y Y Y Y Y Y Y Y Y Y Y Y Y Y Y U I P ",
"P I U Y Y Y Y Y Y Y Y Y Y Y Y Y Y Y Y P D V q x | | l 4 V D P Y Y P D V q x | } j 4 V D P Y Y Y Y Y Y Y Y Y Y Y Y Y Y Y Y U I P ",
"P I U Y Y Y Y Y Y Y Y Y Y Y Y Y Y Y Y D 9 q ~ $.6.3. .T 4 9 D U U D 9 h / &.6.<.} m 4 9 D Y Y Y Y Y Y Y Y Y Y Y Y Y Y Y Y U I P ",
"P I U Y Y Y Y Y Y Y Y Y Y Y Y Y Y Y Y A @ 1 o.0.l.d.<.` - @ Z I I Z @ i +.s.z.u.:.) - @ A Y Y Y Y Y Y Y Y Y Y Y Y Y Y Y Y U I P ",
"P I U Y Y Y Y Y Y Y Y Y Y Y Y Y Y Y Y Z . < &.c.j.r.7.} + X B I I B X u *.m.j.q.4.] O . Z Y Y Y Y Y Y Y Y Y Y Y Y Y Y Y Y U I P ",
"P I U Y Y Y Y Y Y Y Y Y Y Y Y Y Y P D e % z ,.N.d.q.8. .O   B I I B   u ;.C.g.8.8.X.f % e D P Y Y Y Y Y Y Y Y Y Y Y Y Y Y U I P ",
"P I U Y Y Y Y Y Y Y Y Y Y Y Y Y Y D 8 3 m  .0.N.i.8.8. .O   B I I B   u *.C.i.8.8.-.{ m 3 8 D Y Y Y Y Y Y Y Y Y Y Y Y Y Y U I P ",
"P I U Y Y Y Y Y Y Y Y Y Y Y Y Y Y Z @ - _ >.h.v.r.8.8.#.f ; e Z Z e ; c ,.v.r.8.8.4.-._ - @ Z Y Y Y Y Y Y Y Y Y Y Y Y Y Y U I P ",
"P I U Y Y Y Y Y Y Y Y Y Y Y Y Y Y Z . O ] 4.r.i.q.8.8.:.| M 3 # # 3 M  .4.i.8.8.8.5.2.] O . Z Y Y Y Y Y Y Y Y Y Y Y Y Y Y U I P ",
"P I U Y Y Y Y Y Y Y Y Y Y Y Y Y Y B   o } 7.8.8.8.8.8.4.:.| k > > k | >.7.8.8.8.8.8.4.} o   B Y Y Y Y Y Y Y Y Y Y Y Y Y Y U I P ",
"P I U Y Y Y Y Y Y Y Y Y Y Y Y Y Y B   o } 5.8.8.8.8.8.8.4.-.| _ _ | -.4.8.8.8.8.8.8.4.} o   B Y Y Y Y Y Y Y Y Y Y Y Y Y Y U I P ",
"P I U Y Y Y Y Y Y Y Y Y Y Y Y Y Y S $ , Q #.>.8.8.8.8.8.8.4.:.-.-.:.4.8.8.8.8.8.8.>.#.Q , $ S Y Y Y Y Y Y Y Y Y Y Y Y Y Y U I P ",
"P I U Y Y Y Y Y Y Y Y Y Y Y Y Y Y L B w 7 b #.7.8.8.8.8.8.8.4.4.4.4.8.8.8.8.8.8.7.#.b 7 w B L Y Y Y Y Y Y Y Y Y Y Y Y Y Y U I P ",
"P I U Y Y Y Y Y Y Y Y Y Y Y Y Y Y L Z w 6 v #.7.8.8.8.8.8.8.8.8.8.8.8.8.8.8.8.8.7.#.v 6 w Z L Y Y Y Y Y Y Y Y Y Y Y Y Y Y U I P ",
"P I U Y Y Y Y Y Y Y Y Y Y Y Y Y Y D = 2 N  .:.8.8.8.8.8.8.8.8.8.8.8.8.8.8.8.8.8.8.:. .N 2 = D Y Y Y Y Y Y Y Y Y Y Y Y Y Y U I P ",
"P I U Y Y Y Y Y Y Y Y Y Y Y Y P D r 3 j | %.#.X.X.X.X.$.>.8.8.8.8.8.8.>.$.X.X.X.X.#.%.| j 3 r D P Y Y Y Y Y Y Y Y Y Y Y Y U I P ",
"P I U Y Y Y Y Y Y Y Y Y Y Y Y D = 2 R  .-.#.b i u u u v #.7.8.8.8.8.7.#.v u u u i b #.-. .R 2 = D Y Y Y Y Y Y Y Y Y Y Y Y U I P ",
"P I U Y Y Y Y Y Y Y Y Y Y Y Y Z . O ' =.#._ f < < < < f ( #.>.8.8.>.#.( f < < < < f _ #.=.' O . Z Y Y Y Y Y Y Y Y Y Y Y Y U I P ",
"P I U Y Y Y Y Y Y Y Y Y Y Y Y B   o { O.b f ! ' ] ] ] ! f b #.5.5.#.b f ! ] ] ] ' ! f b O.{ o   B Y Y Y Y Y Y Y Y Y Y Y Y U I P ",
"P I U Y Y Y Y Y Y Y Y Y Y Y Y B   o }  .< < ] %. ...=.{ < <  .4.4. .< < { =... .%.] < <  .} o   B Y Y Y Y Y Y Y Y Y Y Y Y U I P ",
"P I U Y Y Y Y Y Y Y Y Y Y Y Y B   o } | + + { O.v v @.} + + | 4.4.| + + } @.v v O.{ + + | } o   B Y Y Y Y Y Y Y Y Y Y Y Y U I P ",
"P I U Y Y Y Y Y Y Y Y Y Y Y Y B   o } | O O | #.v v #.| O O | 4.4.| O O | #.v v #.| O O | } o   B Y Y Y Y Y Y Y Y Y Y Y Y U I P ",
"P I U Y Y Y Y Y Y Y Y Y Y Y Y B   o } | O O | :.O.@.>. .O O | 4.4.| O O  .>.@.O.:.| O O | } o   B Y Y Y Y Y Y Y Y Y Y Y Y U I P ",
"P I U Y Y Y Y Y Y Y Y Y Y Y Y B   o } O.g s ^ | } |  .( s f O.4.4.O.f s (  .| } | ^ s g O.} o   B Y Y Y Y Y Y Y Y Y Y Y Y U I P ",
"P I U Y Y Y Y Y Y Y Y Y Y Y Y B   o } -.X.! f < + + : d ! ..:.8.8.:...! d : + + < f ! X.-.} o   B Y Y Y Y Y Y Y Y Y Y Y Y U I P ",
"P I U Y Y Y Y Y Y Y Y Y Y Y Y S & , W @.-.X.z < + + + z X.2.5.8.8.5.2.X.z + + + < z X.-.@.W , & S Y Y Y Y Y Y Y Y Y Y Y Y U I P ",
"P I U Y Y Y Y Y Y Y Y Y Y Y Y L Z w 5 z @.-.X.} { { { X.:.5.8.8.8.8.5.:.X.{ { { } X.-.@.z 5 w Z L Y Y Y Y Y Y Y Y Y Y Y Y U I P ",
"P I U Y Y Y Y Y Y Y Y Y Y Y Y Y I B X < X.8.4.4.4.4.4.4.7.8.8.8.8.8.8.7.4.4.4.4.4.4.4.| : X B I Y Y Y Y Y Y Y Y Y Y Y Y Y U I P ",
"P I U Y Y Y Y Y Y Y Y Y Y Y Y Y Y B   < &.j.9.8.7.7.7.8.8.8.8.8.8.8.8.8.8.7.7.7.7.5.4.| O   B Y Y Y Y Y Y Y Y Y Y Y Y Y Y U I P ",
"P I U Y Y Y Y Y Y Y Y Y Y Y Y Y Y S & 5 [ ;.4.8.8.8.8.8.8.8.8.8.8.8.8.8.8.8.r.t.r.4.#.W , & S Y Y Y Y Y Y Y Y Y Y Y Y Y Y U I P ",
"P I U Y Y Y Y Y Y Y Y Y Y Y Y Y Y L A t p b #.7.8.8.8.8.8.8.8.8.8.8.8.8.8.r.v.N.N.;.b 5 w A L Y Y Y Y Y Y Y Y Y Y Y Y Y Y U I P ",
"P I U Y Y Y Y Y Y Y Y Y Y Y Y Y Y Y U A = 5 W @.>.8.8.8.q.r.r.r.r.r.r.r.t.j.A.c.1.[ a = A U Y Y Y Y Y Y Y Y Y Y Y Y Y Y Y U I P ",
"P I U Y Y Y Y Y Y Y Y Y Y Y Y Y Y Y Y L S e 5 k X.4.4.8.j.v.M.N.N.N.N.N.N.N.A.,.n 7 y S L Y Y Y Y Y Y Y Y Y Y Y Y Y Y Y Y U I P ",
"P I U Y Y Y Y Y Y Y Y Y Y Y Y Y Y Y Y Y Y S = 2 E { }  .$.*.*.*.*.*.*.*.*.*.&.` 6 = S Y Y Y Y Y Y Y Y Y Y Y Y Y Y Y Y Y Y U I P ",
"P I U Y Y Y Y Y Y Y Y Y Y Y Y Y Y Y Y Y Y P S e 2 o o O + : : < < < < < < < < 6 y S P Y Y Y Y Y Y Y Y Y Y Y Y Y Y Y Y Y Y U I P ",
"P I U Y Y Y Y Y Y Y Y Y Y Y Y Y Y Y Y Y Y Y Y S = .                         . = S Y Y Y Y Y Y Y Y Y Y Y Y Y Y Y Y Y Y Y Y U I P ",
"P I U Y Y Y Y Y Y Y Y Y Y Y Y Y Y Y Y Y Y Y Y P S C B B B B B B B B B B B B C S P Y Y Y Y Y Y Y Y Y Y Y Y Y Y Y Y Y Y Y Y U I P ",
"P I U Y Y Y Y Y Y Y Y Y Y Y Y Y Y Y Y Y Y Y Y Y Y Y Y Y Y Y Y Y Y Y Y Y Y Y Y Y Y Y Y Y Y Y Y Y Y Y Y Y Y Y Y Y Y Y Y Y Y U I P ",
"P I U Y Y Y Y Y Y Y Y Y Y Y Y Y Y Y Y Y Y Y Y Y Y Y Y Y Y Y Y Y Y Y Y Y Y Y Y Y Y Y Y Y Y Y Y Y Y Y Y Y Y Y Y Y Y Y Y Y Y U I P ",
"P I U Y Y Y Y Y Y Y Y Y Y Y Y Y Y Y Y Y Y Y Y Y Y Y Y Y Y Y Y Y Y Y Y Y Y Y Y Y Y Y Y Y Y Y Y Y Y Y Y Y Y Y Y Y Y Y Y Y Y U I P ",
"P I U Y Y Y Y Y Y Y Y Y Y Y Y Y Y Y Y Y Y Y Y Y Y Y Y Y Y Y Y Y Y Y Y Y Y Y Y Y Y Y Y Y Y Y Y Y Y Y Y Y Y Y Y Y Y Y Y Y Y U I P ",
"P I U Y Y Y Y Y Y Y Y Y Y Y Y Y Y Y Y Y Y Y Y Y Y Y Y Y Y Y Y Y Y Y Y Y Y Y Y Y Y Y Y Y Y Y Y Y Y Y Y Y Y Y Y Y Y Y Y Y Y U I P ",
"P I U Y Y Y Y Y Y Y Y Y Y Y Y Y Y Y Y Y Y Y Y Y Y Y Y Y Y Y Y Y Y Y Y Y Y Y Y Y Y Y Y Y Y Y Y Y Y Y Y Y Y Y Y Y Y Y Y Y Y U I P ",
"P I U Y Y Y Y Y Y Y Y Y Y Y Y Y Y Y Y Y Y Y Y Y Y Y Y Y Y Y Y Y Y Y Y Y Y Y Y Y Y Y Y Y Y Y Y Y Y Y Y Y Y Y Y Y Y Y Y Y Y U I P ",
"P I U Y Y Y Y Y Y Y Y Y Y Y Y Y Y Y Y Y Y Y Y Y Y Y Y Y Y Y Y Y Y Y Y Y Y Y Y Y Y Y Y Y Y Y Y Y Y Y Y Y Y Y Y Y Y Y Y Y Y U I P ",
"P I U Y Y Y Y Y Y Y Y Y Y Y Y Y Y Y Y Y Y Y Y Y Y Y Y Y Y Y Y Y Y Y Y Y Y Y Y Y Y Y Y Y Y Y Y Y Y Y Y Y Y Y Y Y Y Y Y Y Y U I P ",
"P I U Y Y Y Y Y Y Y Y Y Y Y Y Y Y Y Y Y Y Y Y Y Y Y Y Y Y Y Y Y Y Y Y Y Y Y Y Y Y Y Y Y Y Y Y Y Y Y Y Y Y Y Y Y Y Y Y Y Y U I P ",
"P I U Y Y Y Y Y Y Y Y Y Y Y Y Y Y Y Y Y Y Y Y Y Y Y Y Y Y Y Y Y Y Y Y Y Y Y Y Y Y Y Y Y Y Y Y Y Y Y Y Y Y Y Y Y Y Y Y Y Y U I P ",
"P I U Y Y Y Y Y Y Y Y Y Y Y Y Y Y Y Y Y Y Y Y Y Y Y Y Y Y Y Y Y Y Y Y Y Y Y Y Y Y Y Y Y Y Y Y Y Y Y Y Y Y Y Y Y Y Y Y Y Y U I P ",
"P I U Y Y Y Y Y Y Y Y Y Y Y Y Y Y Y Y Y Y Y Y Y Y Y Y Y Y Y Y Y Y Y Y Y Y Y Y Y Y Y Y Y Y Y Y Y Y Y Y Y Y Y Y Y Y Y Y Y Y U I P ",
"P I U Y Y Y Y Y Y Y Y Y Y Y Y Y Y Y Y Y Y Y Y Y Y Y Y Y Y Y Y Y Y Y Y Y Y Y Y Y Y Y Y Y Y Y Y Y Y Y Y Y Y Y Y Y Y Y Y Y Y U I P ",
"L L I I I I I I I I I I I I I I I I I I I I I I I I I I I I I I I I I I I I I I I I I I I I I I I I I I I I I I I I I I I I L L ",
"F F L L L L L L L L L L L L L L L L L L L L L L L L L L L L L L L L L L L L L L L L L L L L L L L L L L L L L L L L L L L L F F ",
"S D F K K K K K K K K K K K K K K K K K K K K K K K K K K K K K K K K K K K K K K K K K K K K K K K K K K K K K K K K K K F D S "
};
