/* XPM */
static char *_004[] = {
/* columns rows colors chars-per-pixel */
"64 64 165 2 ",
"   c #010201",
".  c #060A03",
"X  c #060A0D",
"o  c #090F0C",
"O  c #0C1106",
"+  c #0C130C",
"@  c #121B0D",
"#  c #0E1615",
"$  c #0E171D",
"%  c #0F1818",
"&  c #101919",
"*  c #16220D",
"=  c #19270F",
"-  c #172211",
";  c #182512",
":  c #1E2D12",
">  c #1C2B1E",
",  c #1F3018",
"<  c #223414",
"1  c #263916",
"2  c #283C17",
"3  c #21331B",
"4  c #293E18",
"5  c #111B25",
"6  c #141F2A",
"7  c #152123",
"8  c #1C2C23",
"9  c #14212C",
"0  c #1B2C2A",
"q  c #1F3125",
"w  c #172630",
"e  c #182735",
"r  c #1A2B34",
"t  c #1B2B3A",
"y  c #1F323A",
"u  c #213225",
"i  c #263B23",
"p  c #23362B",
"a  c #263C2D",
"s  c #233636",
"d  c #243935",
"f  c #283F37",
"g  c #21353D",
"h  c #2E451A",
"j  c #334C1D",
"k  c #35501E",
"l  c #2E4629",
"z  c #344F23",
"x  c #30492A",
"c  c #375427",
"v  c #395420",
"b  c #3E5C24",
"n  c #2A4236",
"m  c #304A33",
"M  c #375537",
"N  c #385737",
"B  c #3B5A38",
"V  c #446627",
"C  c #446628",
"Z  c #476B29",
"A  c #4B6F2B",
"S  c #51792F",
"D  c #436532",
"F  c #4F7632",
"G  c #4B723B",
"H  c #537D34",
"J  c #1E2F40",
"K  c #1F3242",
"L  c #213545",
"P  c #243A46",
"I  c #23374B",
"U  c #243A4C",
"Y  c #2C4443",
"T  c #274148",
"R  c #2A444D",
"E  c #324F41",
"W  c #365548",
"Q  c #2A4454",
"!  c #2D4955",
"~  c #2B445A",
"^  c #2D485B",
"/  c #345455",
"(  c #395A54",
")  c #2E4A62",
"_  c #304C66",
"`  c #314E68",
"'  c #355460",
"]  c #34536C",
"[  c #37596E",
"{  c #395D6A",
"}  c #355571",
"|  c #375875",
" . c #395B74",
".. c #3B5D7D",
"X. c #3D636C",
"o. c #3C6274",
"O. c #3D637C",
"+. c #49756E",
"@. c #406975",
"#. c #477270",
"$. c #46727C",
"%. c #48747C",
"&. c #578234",
"*. c #598535",
"=. c #5E8D36",
"-. c #568239",
";. c #598638",
":. c #5F8F39",
">. c #608F37",
",. c #609037",
"<. c #63943A",
"1. c #67993B",
"2. c #6A9E3D",
"3. c #6BA13E",
"4. c #669240",
"5. c #699642",
"6. c #6B9843",
"7. c #6FA342",
"8. c #73AB42",
"9. c #76B044",
"0. c #79B446",
"q. c #7CB947",
"w. c #7EBC49",
"e. c #3E6382",
"r. c #416787",
"t. c #426B85",
"y. c #436C8A",
"u. c #487583",
"i. c #46718D",
"p. c #4A7A8B",
"a. c #497692",
"s. c #4C7B95",
"d. c #4D7E9A",
"f. c #4F818B",
"g. c #51838D",
"h. c #4F8094",
"j. c #508295",
"k. c #548892",
"l. c #52859C",
"z. c #558B9D",
"x. c #5285A1",
"c. c #568BA2",
"v. c #578DA8",
"b. c #588EAA",
"n. c #5A94A6",
"m. c #5B93AF",
"M. c #5A93AB",
"N. c #5F9BAD",
"B. c #5D97B1",
"V. c #5F9BB3",
"C. c #5D98B2",
"Z. c #609DAE",
"A. c #619EB2",
"S. c #619FB8",
"D. c #63A1B6",
"F. c #65A5BD",
"G. c #65A4BC",
"H. c #67A8C0",
"J. c #68AAC3",
"K. c #6CB0C6",
"L. c #6EB4CC",
"P. c #6EB4CC",
"I. c #72BBD1",
"U. c #79C6DC",
"Y. c #7AC8DE",
/* pixels */
"<.4.5.6.6.6.6.6.6.6.6.6.6.6.6.6.6.6.6.6.6.6.6.6.6.6.6.6.6.6.6.6.6.6.6.6.6.6.6.6.6.6.6.6.6.6.6.6.6.6.6.6.6.6.6.6.6.6.6.6.6.5.4.<.",
"6.6.6.7.7.7.7.7.7.7.7.7.7.7.7.7.7.7.7.7.7.7.7.7.7.7.7.7.7.7.7.7.7.7.7.7.7.7.7.7.7.7.7.7.7.7.7.7.7.7.7.7.7.7.7.7.7.7.7.7.7.6.6.6.",
"8.8.9.0.0.0.0.0.0.0.0.0.0.0.0.0.0.0.0.0.0.0.0.0.0.0.0.0.0.0.0.0.0.0.0.0.0.0.0.0.0.0.0.0.0.0.0.0.0.0.0.0.0.0.0.0.0.0.0.0.0.9.8.8.",
"9.0.q.w.w.w.w.w.w.w.w.w.w.w.w.w.w.w.w.w.w.w.w.w.w.w.w.w.w.w.w.w.w.w.w.w.w.w.w.w.w.w.w.w.w.w.w.w.w.w.w.w.w.w.w.w.w.w.w.w.w.q.0.9.",
"9.0.q.w.w.w.w.w.w.w.w.w.w.w.w.w.w.w.w.w.w.w.w.w.w.w.w.w.w.w.w.w.w.w.w.w.w.w.w.w.w.w.w.w.w.w.w.w.w.w.w.w.w.w.w.w.w.w.w.w.w.q.0.9.",
"9.0.q.w.w.w.w.w.w.w.w.w.w.w.w.w.w.w.w.w.w.w.w.w.w.w.w.w.w.9.3.3.9.w.w.w.w.w.w.w.w.w.w.w.w.w.w.w.w.w.w.w.w.w.w.w.w.w.w.w.w.q.0.9.",
"9.0.q.w.w.w.w.w.w.w.w.w.w.w.w.w.w.w.w.w.w.w.w.w.w.w.w.w.w.3.Z Z 3.w.w.w.w.w.w.w.w.w.w.w.w.w.w.w.w.w.w.w.w.w.w.w.w.w.w.w.w.q.0.9.",
"9.0.q.w.w.w.w.w.w.w.w.w.w.w.w.w.w.w.w.w.w.9.3.1.1.1.1.1.1.S 4 4 S 1.1.1.1.1.1.3.9.w.w.w.w.w.w.w.w.w.w.w.w.w.w.w.w.w.w.w.w.q.0.9.",
"9.0.q.w.w.w.w.w.w.w.w.w.w.w.w.w.w.w.w.w.w.3.Z j j j j j j 2 @ @ 2 j j j j j j Z 3.w.w.w.w.w.w.w.w.w.w.w.w.w.w.w.w.w.w.w.w.q.0.9.",
"9.0.q.w.w.w.w.w.w.w.w.w.w.w.w.w.w.9.2.1.1.-.B n p q q > - @ # # @ ; a n p u u x H 1.1.2.9.w.w.w.w.w.w.w.w.w.w.w.w.w.w.w.w.q.0.9.",
"9.0.q.w.w.w.w.w.w.w.w.w.w.w.w.w.w.2.C j j N +.%.' Q Q g & # t t % 0 X.%.' Q Q Y l j j C 2.w.w.w.w.w.w.w.w.w.w.w.w.w.w.w.w.q.0.9.",
"9.0.q.w.w.w.w.w.w.w.w.w.w.w.w.9.2.-.B n n ( f.l.O.` ~ L 6 9 Q Q w y @.p.t.O.} ^ s 8 8 x H 2.9.w.w.w.w.w.w.w.w.w.w.w.w.w.w.q.0.9.",
"9.0.q.w.w.w.w.w.w.w.w.w.w.w.w.2.C B +.g.g.g.h.a.e._ J e K Q ] ] ~ U R { l.c.t.] ^ Q R Y x C 2.w.w.w.w.w.w.w.w.w.w.w.w.w.w.q.0.9.",
"9.0.q.w.w.w.w.w.w.w.w.w.w.9.3.-.B ( g.M.N.v.a.e.] Q t K ] t.i.y. .^ P ! p.c.s.y. .] ] ^ s x H 2.9.w.w.w.w.w.w.w.w.w.w.w.w.q.0.9.",
"9.0.q.w.w.w.w.w.w.w.w.w.w.3.Z B +.g.h.d.d.a.y.] L t I ] j.V.S.b.y.] ^ ~ ! X.z.v.y.| | ] ^ Y x Z 2.w.w.w.w.w.w.w.w.w.w.w.w.q.0.9.",
"9.0.q.w.w.w.w.w.w.w.w.9.2.-.B ( g.c.a.y.y.e.] Q t K ] s.G.L.J.m.i.| } ) I ! p.z.s.y.e.| } ^ d x H 2.9.w.w.w.w.w.w.w.w.w.w.q.0.9.",
"9.0.q.w.w.w.w.w.w.w.w.2.V B +.g.s.a.y.e.e.] L t I ] l.G.I.L.m.a.r...| } ) ~ Q { c.m.y...| ] ^ Y x V 2.w.w.w.w.w.w.w.w.w.w.q.0.9.",
"9.0.q.w.w.w.w.w.w.9.2.-.B ( g.c.a.y.e.| ] Q t K ] s.G.I.L.G.d.y.e.....| } ) L Q p.c.s.y.e.| } ^ d x H 2.9.w.w.w.w.w.w.w.w.q.0.9.",
"9.0.q.w.w.w.w.w.w.2.V B +.g.h.s.y.e.e.] K t I ] l.G.I.L.B.d.y.e.e.......| } ) ~ Q { c.M.y...| ] ^ Y x V 2.w.w.w.w.w.w.w.w.q.0.9.",
"9.0.q.w.w.w.w.w.w.<.h n g.N.d.y.e.| ] Q t K ] s.G.I.L.G.d.y.e.............| } ) L Q p.c.s.y.e.| ] Q 8 h <.w.w.w.w.w.w.w.w.q.0.9.",
"9.0.q.w.w.w.w.w.w.,.2 d z.G.d.e.e.] K t I ] l.G.I.L.B.d.y.e.e...e.e.e.........} ) ~ Q { c.M.y...| ~ 7 2 ,.w.w.w.w.w.w.w.w.q.0.9.",
"9.0.q.w.w.w.w.9.2.H m / z.V.a...] Q t K ] s.G.I.U.P.x.y.e.......................} ) L ! p.z.d.a.i. .y i F 2.9.w.w.w.w.w.w.q.0.9.",
"9.0.q.w.w.w.w.2.V M #.h.j.s.y.] K e I [ l.H.I.U.Y.K.d.e.e.......................| } ) ~ R { c.G.G.l.] Y l V 2.w.w.w.w.w.w.q.0.9.",
"9.0.q.w.w.w.w.,.h f k.A.d.e.] U 5 $ K ] p.n.N.Z.Z.z.o.) ) ) ) ) ) ) ) ) ) ) ) ) ) ^ ~ L 7 g u.A.K.D.t.Q 8 h ,.w.w.w.w.w.w.q.0.9.",
"9.0.q.w.w.w.w.,.2 d z.G.d.} L 5 X X $ 9 g T R R R P r 9 9 9 9 9 9 9 9 9 9 9 9 6 6 6 5 $ X % g o.D.G.i.~ 7 2 ,.w.w.w.w.w.w.q.0.9.",
"9.0.q.w.w.w.w.>.< 0 $.h.o.! d 3 : : 3 3 i i i i i i 3 ; + X X + ; 3 3 3 3 3 3 3 3 3 3 3 : : i W f.j.[ L & < >.w.w.w.w.w.w.q.0.9.",
"9.0.q.w.w.w.w.>.< # r g w p D H H &.&.&.;.;.;.;.;.;.&.C ;     - C &.&.&.&.&.&.&.&.&.&.&.&.&.&.G E g 9 $ o < >.w.w.w.w.w.w.q.0.9.",
"9.0.q.w.w.w.w.>.< + ; 3 3 z =.8.8.9.8.9.8.8.8.8.8.8.8.*.:     : &.8.8.8.8.8.8.8.9.9.8.8.8.8.8.:.c 3 , ; O < >.w.w.w.w.w.w.q.0.9.",
"9.0.q.w.w.w.w.>.< = b H &.:.8.q.q.q.q.q.q.q.q.q.q.q.q.=.<     : =.q.q.q.q.q.q.q.q.q.q.q.q.q.q.8.,.&.H b = < >.w.w.w.w.w.w.q.0.9.",
"9.0.q.w.w.w.w.1.v k =.8.8.9.q.w.w.w.w.w.w.w.w.w.w.w.w.=.<     : =.w.w.w.w.w.w.w.w.w.w.w.w.w.w.q.9.8.8.=.k v 1.w.w.w.w.w.w.q.0.9.",
"9.0.q.w.w.w.w.8.,.>.7.q.q.q.w.w.w.w.w.w.w.w.w.w.w.w.w.=.<     : =.w.w.w.w.w.w.w.w.w.w.w.w.w.w.w.q.q.q.8.>.,.8.w.w.w.w.w.w.q.0.9.",
"9.0.q.w.w.w.w.q.9.9.q.w.w.w.w.w.w.w.w.w.w.w.w.w.w.w.w.=.<     : =.w.w.w.w.w.w.w.w.w.w.w.w.w.w.w.w.w.w.q.9.0.q.w.w.w.w.w.w.q.0.9.",
"9.0.q.w.w.w.w.w.q.q.w.w.w.w.w.w.w.w.w.w.w.w.w.w.w.w.w.=.<     : =.w.w.w.w.w.w.w.w.w.w.w.w.w.w.w.w.w.w.w.q.q.w.w.w.w.w.w.w.q.0.9.",
"9.0.q.w.w.w.w.w.w.w.w.w.w.w.w.w.w.w.w.w.w.w.w.w.w.w.w.=.<     : =.w.w.w.w.w.w.w.w.w.w.w.w.w.w.w.w.w.w.w.w.w.w.w.w.w.w.w.w.q.0.9.",
"9.0.q.w.w.w.w.w.w.w.w.w.w.w.w.w.w.w.w.w.w.w.w.w.w.w.w.=.<     : =.w.w.w.w.w.w.w.w.w.w.w.w.w.w.w.w.w.w.w.w.w.w.w.w.w.w.w.w.q.0.9.",
"9.0.q.w.w.w.w.w.w.w.w.w.w.w.w.w.w.w.w.w.w.w.w.w.w.w.w.=.<     : =.w.w.w.w.w.w.w.w.w.w.w.w.w.w.w.w.w.w.w.w.w.w.w.w.w.w.w.w.q.0.9.",
"9.0.q.w.w.w.w.w.w.w.w.w.w.w.w.w.w.w.w.w.w.w.w.w.w.w.w.=.<     : =.w.w.w.w.w.w.w.w.w.w.w.w.w.w.w.w.w.w.w.w.w.w.w.w.w.w.w.w.q.0.9.",
"9.0.q.w.w.w.w.w.w.w.w.w.w.w.w.w.w.w.w.w.w.w.w.w.w.w.w.=.<     : =.w.w.w.w.w.w.w.w.w.w.w.w.w.w.w.w.w.w.w.w.w.w.w.w.w.w.w.w.q.0.9.",
"9.0.q.w.w.w.w.w.w.w.w.w.w.w.w.w.w.w.w.w.w.w.w.w.w.w.w.=.<     : =.w.w.w.w.w.w.w.w.w.w.w.w.w.w.w.w.w.w.w.w.w.w.w.w.w.w.w.w.q.0.9.",
"9.0.q.w.w.w.w.w.w.w.w.w.w.w.w.w.w.w.w.w.w.w.w.w.w.w.w.=.<     : =.w.w.w.w.w.w.w.w.w.w.w.w.w.w.w.w.w.w.w.w.w.w.w.w.w.w.w.w.q.0.9.",
"9.0.q.w.w.w.w.w.w.w.w.w.w.w.w.w.w.w.w.w.w.w.w.w.w.w.w.=.<     : =.w.w.w.w.w.w.w.w.w.w.w.w.w.w.w.w.w.w.w.w.w.w.w.w.w.w.w.w.q.0.9.",
"9.0.q.w.w.w.w.w.w.w.w.w.w.w.w.w.w.w.w.w.w.w.w.w.w.w.w.=.<     : =.w.w.w.w.w.w.w.w.w.w.w.w.w.w.w.w.w.w.w.w.w.w.w.w.w.w.w.w.q.0.9.",
"9.0.q.w.w.w.w.w.w.w.w.w.w.w.w.w.w.w.w.w.w.w.w.w.w.w.w.=.<     : =.w.w.w.w.w.w.w.w.w.w.w.w.w.w.w.w.w.w.w.w.w.w.w.w.w.w.w.w.q.0.9.",
"9.0.q.w.w.w.w.w.w.w.w.w.w.w.w.w.w.w.w.w.w.w.w.w.w.w.w.=.<     : =.w.w.w.w.w.w.w.w.w.w.w.w.w.w.w.w.w.w.w.w.w.w.w.w.w.w.w.w.q.0.9.",
"9.0.q.w.w.w.w.w.w.w.w.w.w.w.w.w.w.w.w.w.w.w.w.w.w.w.w.=.<     : =.w.w.w.q.q.q.q.w.w.w.w.w.w.w.w.w.w.w.w.w.w.w.w.w.w.w.w.w.q.0.9.",
"9.0.q.w.w.w.w.w.w.w.w.w.w.w.w.w.w.w.w.w.w.w.w.w.w.w.w.=.<     : =.w.q.8.<.*.=.1.8.w.w.w.w.w.w.w.w.w.w.w.w.w.w.w.w.w.w.w.w.q.0.9.",
"9.0.q.w.w.w.w.w.w.w.w.w.w.w.w.w.w.w.w.w.w.w.w.w.w.w.w.=.<     : =.q.q.,.j : < v 1.w.w.w.w.w.w.w.w.w.w.w.w.w.w.w.w.w.w.w.w.q.0.9.",
"9.0.q.w.w.w.w.w.w.w.w.w.w.w.w.w.w.w.w.w.w.w.w.w.w.w.w.=.<     * V ;.*.V *     < =.w.w.w.w.w.w.w.w.w.w.w.w.w.w.w.w.w.w.w.w.q.0.9.",
"9.0.q.w.w.w.w.w.w.w.w.w.w.w.w.w.w.w.w.w.w.w.w.w.w.w.w.,.2 .   . * : : * .   . 2 ,.w.w.w.w.w.w.w.w.w.w.w.w.w.w.w.w.w.w.w.w.q.0.9.",
"9.0.q.w.w.w.w.w.w.w.w.w.w.w.w.w.w.w.w.w.w.w.w.w.w.w.w.1.b : O             O : b 1.w.w.w.w.w.w.w.w.w.w.w.w.w.w.w.w.w.w.w.w.q.0.9.",
"9.0.q.w.w.w.w.w.w.w.w.w.w.w.w.w.w.w.w.w.w.w.w.w.w.w.w.9.1.A : . . . . . . : A 1.9.w.w.w.w.w.w.w.w.w.w.w.w.w.w.w.w.w.w.w.w.q.0.9.",
"9.0.q.w.w.w.w.w.w.w.w.w.w.w.w.w.w.w.w.w.w.w.w.w.w.w.w.w.w.1.b 2 2 < < 2 2 b 1.w.w.w.w.w.w.w.w.w.w.w.w.w.w.w.w.w.w.w.w.w.w.q.0.9.",
"9.0.q.w.w.w.w.w.w.w.w.w.w.w.w.w.w.w.w.w.w.w.w.w.w.w.w.w.w.9.1.,.,.>.>.,.,.1.9.w.w.w.w.w.w.w.w.w.w.w.w.w.w.w.w.w.w.w.w.w.w.q.0.9.",
"9.0.q.w.w.w.w.w.w.w.w.w.w.w.w.w.w.w.w.w.w.w.w.w.w.w.w.w.w.w.w.w.w.w.w.w.w.w.w.w.w.w.w.w.w.w.w.w.w.w.w.w.w.w.w.w.w.w.w.w.w.q.0.9.",
"9.0.q.w.w.w.w.w.w.w.w.w.w.w.w.w.w.w.w.w.w.w.w.w.w.w.w.w.w.w.w.w.w.w.w.w.w.w.w.w.w.w.w.w.w.w.w.w.w.w.w.w.w.w.w.w.w.w.w.w.w.q.0.9.",
"9.0.q.w.w.w.w.w.w.w.w.w.w.w.w.w.w.w.w.w.w.w.w.w.w.w.w.w.w.w.w.w.w.w.w.w.w.w.w.w.w.w.w.w.w.w.w.w.w.w.w.w.w.w.w.w.w.w.w.w.w.q.0.9.",
"9.0.q.w.w.w.w.w.w.w.w.w.w.w.w.w.w.w.w.w.w.w.w.w.w.w.w.w.w.w.w.w.w.w.w.w.w.w.w.w.w.w.w.w.w.w.w.w.w.w.w.w.w.w.w.w.w.w.w.w.w.q.0.9.",
"9.0.q.w.w.w.w.w.w.w.w.w.w.w.w.w.w.w.w.w.w.w.w.w.w.w.w.w.w.w.w.w.w.w.w.w.w.w.w.w.w.w.w.w.w.w.w.w.w.w.w.w.w.w.w.w.w.w.w.w.w.q.0.9.",
"9.0.q.w.w.w.w.w.w.w.w.w.w.w.w.w.w.w.w.w.w.w.w.w.w.w.w.w.w.w.w.w.w.w.w.w.w.w.w.w.w.w.w.w.w.w.w.w.w.w.w.w.w.w.w.w.w.w.w.w.w.q.0.9.",
"9.0.q.w.w.w.w.w.w.w.w.w.w.w.w.w.w.w.w.w.w.w.w.w.w.w.w.w.w.w.w.w.w.w.w.w.w.w.w.w.w.w.w.w.w.w.w.w.w.w.w.w.w.w.w.w.w.w.w.w.w.q.0.9.",
"9.0.q.w.w.w.w.w.w.w.w.w.w.w.w.w.w.w.w.w.w.w.w.w.w.w.w.w.w.w.w.w.w.w.w.w.w.w.w.w.w.w.w.w.w.w.w.w.w.w.w.w.w.w.w.w.w.w.w.w.w.q.0.9.",
"8.8.0.q.q.q.q.q.q.q.q.q.q.q.q.q.q.q.q.q.q.q.q.q.q.q.q.q.q.q.q.q.q.q.q.q.q.q.q.q.q.q.q.q.q.q.q.q.q.q.q.q.q.q.q.q.q.q.q.q.q.0.8.8.",
"3.3.8.8.8.8.8.8.8.8.8.8.8.8.8.8.8.8.8.8.8.8.8.8.8.8.8.8.8.8.8.8.8.8.8.8.8.8.8.8.8.8.8.8.8.8.8.8.8.8.8.8.8.8.8.8.8.8.8.8.8.8.3.3.",
"1.2.3.7.7.7.7.7.7.7.7.7.7.7.7.7.7.7.7.7.7.7.7.7.7.7.7.7.7.7.7.7.7.7.7.7.7.7.7.7.7.7.7.7.7.7.7.7.7.7.7.7.7.7.7.7.7.7.7.7.7.3.2.1."
};
