/* XPM */
static char *d2ec7750a06b49c98e33a659ab7311f11KsVOMpmCwVye48n[] = {
/* columns rows colors chars-per-pixel */
"64 64 161 2 ",
"   c None",
".  c #010101",
"X  c #050803",
"o  c #090A07",
"O  c #0B0B0A",
"+  c #100F0F",
"@  c #0E100C",
"#  c #10120E",
"$  c #131313",
"%  c #1B1A1A",
"&  c #181818",
"*  c #2D3D1A",
"=  c #162226",
"-  c #252423",
";  c #292725",
":  c #2A2927",
">  c #272628",
",  c #282729",
"<  c #2E2D2B",
"1  c #272824",
"2  c #302E2C",
"3  c #32312E",
"4  c #302F31",
"5  c #24363B",
"6  c #353333",
"7  c #383734",
"8  c #3A3835",
"9  c #3E3C3A",
"0  c #373538",
"q  c #403E3C",
"w  c #354E1F",
"e  c #33451D",
"r  c #36511F",
"t  c #3A4926",
"y  c #375220",
"u  c #395422",
"i  c #3C5A23",
"p  c #425F28",
"a  c #42403C",
"s  c #4E6E30",
"d  c #537632",
"f  c #557C32",
"g  c #5D7C36",
"h  c #5E7A3A",
"j  c #483F47",
"k  c #443B42",
"l  c #444244",
"z  c #484146",
"x  c #4D4A47",
"c  c #474548",
"v  c #4E4B49",
"b  c #514E4B",
"n  c #54534E",
"m  c #595A4F",
"M  c #575450",
"N  c #595652",
"B  c #5B5954",
"V  c #5F5C5A",
"C  c #615E5A",
"Z  c #5D6C47",
"A  c #5A6349",
"S  c #5A6744",
"D  c #63615B",
"F  c #68695D",
"G  c #6C755C",
"H  c #656363",
"J  c #696665",
"K  c #6B6963",
"L  c #6C696C",
"P  c #676468",
"I  c #726C6D",
"U  c #75746C",
"Y  c #707167",
"T  c #6E6A71",
"R  c #736F73",
"E  c #757273",
"W  c #797772",
"Q  c #7B7A74",
"!  c #79757B",
"~  c #7C7A7D",
"^  c #807F77",
"/  c #578133",
"(  c #5C8134",
")  c #608436",
"_  c #668A3B",
"`  c #638638",
"'  c #749A4B",
"]  c #719746",
"[  c #7EBD4A",
"{  c #83AD58",
"}  c #84837A",
"|  c #818077",
" . c #9AC76D",
".. c #95C268",
"X. c #7E7A81",
"o. c #827E85",
"O. c #548998",
"+. c #7CC6DB",
"@. c #898885",
"#. c #858088",
"$. c #898989",
"%. c #958C8F",
"&. c #9D9E8D",
"*. c #939284",
"=. c #9D9C99",
"-. c #A48E9D",
";. c #A1A291",
":. c #A7A896",
">. c #A2A19F",
",. c #ACAD9A",
"<. c #A8A997",
"1. c #B1B29F",
"2. c #B399AB",
"3. c #84ADB8",
"4. c #A8A7A5",
"5. c #B0AFAE",
"6. c #B4B6A1",
"7. c #BBBCA7",
"8. c #B5B6A8",
"9. c #BCBEA9",
"0. c #B7B6B4",
"q. c #BEBDBC",
"w. c #BCBCBD",
"e. c #B9B8B5",
"r. c #C7A8BE",
"t. c #BFC1AB",
"y. c #BFC1B2",
"u. c #C1C3AC",
"i. c #C4C5B3",
"p. c #C7C9B4",
"a. c #C6C7B8",
"s. c #C7C8B9",
"d. c #CBCDBC",
"f. c #CED0BE",
"g. c #D1AEC8",
"h. c #D8B3CF",
"j. c #DBB9D4",
"k. c #A2DAEA",
"l. c #C2C7C8",
"z. c #CDCCCB",
"x. c #C4C3C1",
"c. c #D0CFCE",
"v. c #CFD0C0",
"b. c #D4D6C4",
"n. c #D7D9C6",
"m. c #D8DAC7",
"M. c #DCDECC",
"N. c #DEC1D7",
"B. c #C6D5D9",
"V. c #D2D2D2",
"C. c #D6D4D4",
"Z. c #E2C5DB",
"A. c #DFE1CF",
"S. c #DAEEF4",
"D. c #ECECEC",
"F. c #F0EFF0",
"G. c #F4F3F3",
"H. c #F9F9F9",
"J. c white",
"K. c #FDFDFD",
"L. c #FCFCFC",
/* pixels */
"z z j j j j j j j j j j j j j j j j j j j j j z z z z z z z z z z z z z z z z z j j j j j j j j j j j j z z z z z j j j j j j k ",
"                                                                                                                                ",
"                                                                                                                                ",
"                        . . . . . . . .                                                 . . . . . . . .                         ",
"                        . . $ % % % - >                                                 , - % % % $ . .                         ",
"                        . . 9 B M B E ~ % .                                         . % ~ E B M B 9 . .                         ",
"                        . . 9 B B B ! o.l 4 %                                     % 4 l o.! B B B 9 . .                         ",
"                        . . 9 B B B ! #.o.X.% .                                 . % X.o.#.! B B B 9 . .                         ",
"                        . . 9 B B B L E X.o.l 6                                 6 l X.X.E L B B B 9 . .                         ",
"                        . . 9 B B B B B ! o.o.! & .                         . & ! o.o.! B B B B B 9 . .                         ",
"                          . : 6 v B B B L R X.X.l 6 $                     $ 6 l X.X.R L B B B v 6 : .                           ",
"                            . . 9 B B B B B ! o.#.! & .                 . & ! #.#.! B B B B B 9 . .                             ",
"                              . 1 < v B B B J L L H $ . X             X . $ H L L J B B B v 2 - .                               ",
"                                . . q B B B M M B b O . . . . . . . . . . $ b B B B B B B q . .                                 ",
"                                1 < x B B B B B B b + . o # * * #     o . $ n B B B B B B x < 1 o                               ",
"                            . . 9 B B B B B B B B n + .     ) )         X $ n B B B B B B B B 9 . .                             ",
"                          . 1 2 x B B B B B B B B n t e     ( (         e t n B B B B B B B B x 2 1 .                           ",
"                        . . 9 B B B B B B M B M M N h (     ( (         ) h N B B B B B B B B B B 9 . .                         ",
"                      . - 6 v B B B M B B B B B B B A S h _ ]   )       ( h N B B B B B B B B B B v 6 ; .                       ",
"                    X . 7 N B B M B B M B B B B B B B N h _ ....` (     ( h B B B N B B B B B B B B B 8 . X                     ",
"      X X X       X . . 7 N B B M B 4.q.q.q.q.0.K B B N A Z ' ' { { _ ) ( h N K 0.q.q.q.q.4.B B B B N 7 . . X       X X X       ",
"    . . . .     . . . . 7 N B B M B C.J.J.J.J.G.W M B B B m g _  . ._ ( ( h n W G.J.J.J.J.C.V B B B N 7 . . . .     . . . .     ",
"            . . . . - 7 x B M B >.x.D.H.@.V H P 5.0.K B B N A Z ' ' ) g S G e.5.P H V @.H.D.x.>.B B B x 7 - . . . .             ",
"            . . . . 8 B B M M B z.J.J.G.0 . . $ V.G.E M B B B m h g ( h n E G.C.$ . . 0 F.J.J.c.B B B B B 8 . . . .             ",
"      . . .     . . 7 B B B M B z.H.~ v & . . & c.G.U M B B B N A A A A n U G.V.& . . & v ~ H.z.B B B B B 7 . .     . . .       ",
"    . . . .     . . 7 B B B M B z.H.l . . . X % V.G.U M M M M M M M M M M U G.V.% o . . . l H.z.B B B B B 7 . .     . . . .     ",
"            X X . . 7 B B B B B z.J.3.O.= o $.w.D.F.U b - % % % % % % - b E G.G.q.$.o = O.3.J.z.B B B B B 7 . . X X             ",
"            . . . . 8 B B B B B z.H.k.+.5 $ z.J.H.D.U v # . . . . . . + v U D.H.J.z.$ 5 +.k.H.z.B B B B B 7 . . . .             ",
"      . . . . . ; q b B B B B B W @.B.S.l.q.G.G.=.^ C M l 7 o . . X 7 l M C } =.G.F.q.l.S.B.@.W B B B B B b a ; . . . . .       ",
"    . . . . . . 7 N B B B B B B B C C.J.H.H.G.D.U n B B B b O X X O v B B B B W D.G.H.H.J.C.C B M B B B B N B 7 . . . . . .     ",
"            . . 6 B M B B B B B -.r.j.Z.%.Q Q W V B B B B M c l l l M B B B B D W Q Q %.Z.N.r.-.B M B B B B N 7 . .             ",
"            X X 7 B M M M B B B 2.h.h.g.I n M n B B B B B B B B B B B B B B B B M M n I g.h.h.2.B M B B B B N 8 X X             ",
"          . < c n B M B M M B B J I I I V B B B B B B N B B B B N B B B B B B B B B B V I I I J B B B B B B B b c < .           ",
"        X . 3 B B B B B M M B B M M M M B B B B C C C D D D D D D D D C C C C V B B B B M M M M B B B B B B M B B 3 . X         ",
"        . . 3 B B B B B B B M B B B B B B B B V &.,.,.,.,.,.,.,.,.,.,.,.,.,.,.&.V B B B B B B B B B B B M M M M B 3 . X         ",
"        O o 6 B B B B V B B M M M B M B B B C K 1.u.u.u.u.u.u.u.u.u.u.u.u.u.u.1.K C B B B B B B M M M B M M M M B 6 o O         ",
"      . < v n B B B I X.H B B M B B B B M B &.6.9.t.t.t.t.t.u.u.u.u.t.t.t.t.t.9.6.&.B B B B B B B B B B B B B B B n x < .       ",
"    . . 3 B B B B V L R H B B M B B B B D K ,.u.t.t.u.u.u.u.6.6.6.6.u.u.u.u.t.t.u.,.K D B B M M B B B n v n V B B B B 3 . .     ",
"    . . 3 B B B I X.0 + 9 B B B B B M B &.6.9.u.t.u.b.m.M.d.Y D D Y d.M.m.b.u.t.u.9.6.&.B M M M B B N 9 o 6 X.I B B B 3 . .     ",
"    . . 6 C B B E o.4 . 8 B B B B B D K ,.u.6.6.u.i.m.M.v.y.U K H U y.v.M.m.i.u.6.6.t.<.K C B M M B N 7 . 4 o.E B B C 6 . .     ",
"    . . c o.J B E #.4 . 8 B B B B B &.6.9.9.U K i.M.M.b.W I i.d.d.i.I W b.M.M.i.K U 9.9.6.&.B M M M B 7 . 4 #.E M J o.c . .     ",
"      . l T H C P L 6 # q B B B D K <.u.1.<.Q U 8.s.m.b.^ Q v.A.M.v.Q | b.m.s.8.U Q <.1.u.<.K D B B B 9 O 4 L P C H T l .       ",
"        O o v o.0 o 7 n M B B B &.7.9.7.U D 7.d.U K a.M.b.b.M.M.M.M.b.b.M.a.K U d.7.D U 7.9.7.&.B B B M n 7 o 7 o.v o @         ",
"          . l L , . 8 B B B B B ;.u.t.9.} U i.b.} W d.M.M.M.M.M.M.M.M.M.M.d.W } b.i.U } 9.t.u.;.B B B M B 7 . > L l .           ",
"            o o X . 8 B B B B B ;.u.t.t.f.b.M.M.b.b.M.M.M.M.M.M.M.M.M.M.M.M.b.b.M.M.b.f.t.t.u.;.B M B B B 7 . . o o             ",
"              . . . 8 B B B K U <.u.i.p.n.M.M.M.M.M.M.M.M.M.M.M.M.M.M.M.M.M.M.M.M.M.M.n.p.i.u.<.Y K B B B 7 . . .               ",
"                . . 8 B B B &.9.t.u.b.M.M.M.M.M.M.M.M.M.M.M.M.M.M.M.M.M.M.M.M.M.M.M.M.M.M.b.u.t.9.&.B B B 7 . .                 ",
"                . . 8 B B B ;.u.t.u.b.M.M.M.M.M.M.M.M.M.M.M.M.M.M.M.M.M.M.M.M.M.M.M.M.M.M.b.u.t.u.;.B B B 7 . .                 ",
"                . . 7 B B B ;.u.t.u.b.M.M.M.M.M.M.M.M.M.M.M.M.M.M.M.M.M.M.M.M.M.M.M.M.M.M.b.u.t.u.;.B B B 7 . .                 ",
"                . . 7 B B B ;.u.t.u.b.M.M.M.M.M.M.M.M.M.M.M.M.M.M.M.M.M.M.M.M.M.M.M.M.M.M.b.u.t.u.;.B B B 7 . .                 ",
"                . . 7 B B B ;.u.t.u.b.M.M.M.M.M.M.M.M.M.M.M.M.M.M.M.M.M.M.M.M.M.M.M.M.M.M.b.u.t.u.;.B B B 7 . .                 ",
"                . . 7 B B B ;.u.t.u.b.M.M.M.M.M.M.M.M.M.M.M.M.M.M.M.M.M.M.M.M.M.M.M.M.M.M.b.u.t.u.;.B B B 7 . .                 ",
"                . . 8 B B B ;.u.u.u.b.M.M.M.M.M.M.M.M.M.M.M.M.M.M.M.M.M.M.M.M.M.M.M.M.M.M.b.u.u.u.;.B B B 8 . .                 ",
"                  . : 7 v B } &.6.u.d.b.m.M.M.M.M.M.M.M.M.M.M.M.M.M.M.M.M.M.M.M.M.M.M.m.b.d.u.6.&.} B x 7 : .                   ",
"                    X . 8 B B B ;.u.t.u.b.M.M.M.M.M.M.M.M.M.M.M.M.M.M.M.M.M.M.M.M.M.M.b.u.t.u.;.B B B 8 . X                     ",
"                      X : 8 v B ;.t.t.u.b.M.M.M.M.M.M.M.M.M.M.M.M.M.M.M.M.M.M.M.M.M.M.b.u.t.u.;.B v 7 : X                       ",
"                        . . q V &.9.t.u.b.M.M.M.M.M.M.M.M.M.M.M.M.M.M.M.M.M.M.M.M.M.M.b.u.t.u.;.B 9 . .                         ",
"                          o : 6 Y *.6.u.b.M.M.M.M.M.M.M.M.M.M.M.M.M.M.M.M.M.M.M.M.M.M.b.u.6.*.U 3 ; X                           ",
"                            . . 9 V :.i.m.A.A.A.A.A.A.A.A.A.A.A.A.A.A.A.A.A.A.A.A.A.A.m.i.:.B 9 . .                             ",
"                              X : 6 N F Y U U U U U U U U U U U U U U U U U U U U U U Y F n 3 - .                               ",
"                                X . . . . . . . . . . . . . . . . . . . . . . . . . . . . . . .                                 ",
"                                p y u u u u u u u u u u u u u u y y u u u u u u u y r r w w w i                                 ",
"                        [ [ [ [ [ [ [ [ [ [ [ [ [ [ [ [ [ [ [ [ [ [ [ [ [ [ [ [ [ [ [ [ [ [ [ [ [ [ [ [ [ [                     ",
"                    p d d f f f f f d f f f f f f / / / / / / / / / / / / / / / f f f f f f f f f f d d d s t                   "
};
