/* XPM */
static char *_ddf14c6aae4411b858bb9de98b14051bPcxc9yJsBUt4b6g[] = {
/* columns rows colors chars-per-pixel */
"64 64 175 2 ",
"   c None",
".  c #020302",
"X  c #080707",
"o  c #070A04",
"O  c #090B06",
"+  c #0B0B0A",
"@  c #100F0F",
"#  c #0F110C",
"$  c #10110E",
"%  c #101809",
"&  c #100F10",
"*  c #0C1416",
"=  c #141313",
"-  c #181716",
";  c #1C1B1B",
":  c #181718",
">  c #18230F",
",  c #223115",
"<  c #201F21",
"1  c #1C272A",
"2  c #242224",
"3  c #2A2927",
"4  c #2C2B2B",
"5  c #292527",
"6  c #302F2C",
"7  c #33322F",
"8  c #2F2D30",
"9  c #363532",
"0  c #3A3936",
"q  c #3D3C39",
"w  c #393735",
"e  c #403E3B",
"r  c #39581C",
"t  c #42413E",
"y  c #476627",
"u  c #4B7523",
"i  c #517D25",
"p  c #51772D",
"a  c #52792B",
"s  c #526F34",
"d  c #556F39",
"f  c #536F35",
"g  c #464542",
"h  c #484643",
"j  c #4B4A46",
"k  c #4E4C49",
"l  c #514F4B",
"z  c #54524E",
"x  c #58594F",
"c  c #565B4A",
"v  c #565451",
"b  c #585652",
"n  c #5B5955",
"m  c #575459",
"M  c #5E5C59",
"N  c #58555A",
"B  c #615F5A",
"V  c #566244",
"C  c #596744",
"Z  c #5F6254",
"A  c #646A55",
"S  c #63615C",
"D  c #666A5A",
"F  c #69725A",
"G  c #615E63",
"H  c #666463",
"J  c #696662",
"K  c #676867",
"L  c #6C6B65",
"P  c #666368",
"I  c #6A656A",
"U  c #676868",
"Y  c #6A6A6A",
"T  c #716C6B",
"R  c #706E67",
"E  c #6E6A71",
"W  c #716E74",
"Q  c #767471",
"!  c #787673",
"~  c #7B7A76",
"^  c #79757C",
"/  c #77737A",
"(  c #5C8C2C",
")  c #558428",
"_  c #578233",
"`  c #6A9C37",
"'  c #669439",
"]  c #6EA13A",
"[  c #71A43D",
"{  c #75AE44",
"}  c #85B74D",
"|  c #87AA5B",
" . c #8AAB60",
".. c #95BF61",
"X. c #8CC151",
"o. c #92C855",
"O. c #9ED55E",
"+. c #A1DA5F",
"@. c #A2D465",
"#. c #A3DB62",
"$. c #A6DA68",
"%. c #A7E164",
"&. c #AAE367",
"*. c #ACE569",
"=. c #B1E575",
"-. c #7E7A81",
";. c #807C83",
":. c #548A99",
">. c #77AAB9",
",. c #79BFD2",
"<. c #75B8CC",
"1. c #858286",
"2. c #8B8585",
"3. c #888688",
"4. c #9D9E8E",
"5. c #94948D",
"6. c #928F92",
"7. c #959294",
"8. c #989596",
"9. c #9B9899",
"0. c #9B9B96",
"q. c #A3A392",
"w. c #ADAE9B",
"e. c #AFB09D",
"r. c #B1B29F",
"t. c #B29CAA",
"y. c #A9A9A5",
"u. c #AFB1A3",
"i. c #B3B4A3",
"p. c #BCBDA9",
"a. c #BEBFB1",
"s. c #BABAB9",
"d. c #C7ACBE",
"f. c #C1A7B9",
"g. c #BFC1AB",
"h. c #BDC4B2",
"j. c #C1C3AD",
"k. c #C3C4B3",
"l. c #C3C4BB",
"z. c #C7C8BA",
"x. c #CACBBE",
"c. c #C3CFB7",
"v. c #CAAEC1",
"b. c #D6B7CD",
"n. c #D8B9CF",
"m. c #96D8EA",
"M. c #CCCDC1",
"N. c #CACBCB",
"B. c #C3C3C1",
"V. c #D0CFCE",
"C. c #CFD1C0",
"Z. c #D2D4C4",
"A. c #D7D9C7",
"S. c #D8DAC7",
"D. c #D7D9C8",
"F. c #DCDECC",
"G. c #D3D4CF",
"H. c #DBC4D4",
"J. c #DBDBDB",
"K. c #D7D7D6",
"L. c #E1C7D9",
"P. c #DEE0CE",
"I. c #E0E2D0",
"U. c #E2F4CD",
"Y. c #D3E3E6",
"T. c #DFEFF3",
"R. c #E4E3E3",
"E. c #ECEBEB",
"W. c #E7E7E8",
"Q. c #EDF5F7",
"!. c #F5F4F4",
"~. c #FAFAFB",
"^. c #FCFCFC",
"/. c #F4F9FA",
"(. c #EFF5E7",
/* pixels */
"                                          5 = = <             2 = = = = <                                                       ",
"                                            . .                 . . . .                                                         ",
"                                          # 3 3 $             # 5 4 4 3 $                                                       ",
"                                        . X k z + .         . + j n n j + .                                                     ",
"                                      X 2 9 z k + .       + 3 9 M S N k + .                                                     ",
"                                    . X j n b k + .     . + k n U J n j X .                                                     ",
"                                  # 4 9 z b n k + . o # 4 9 z n U U n k + .                                                     ",
"                                . X h n b b b k # . . O j n b b U U n j O .                                                     ",
"                                . X h n S H n k + . . + j M Z H Y U n k + .                                                     ",
"                                . + h n K K M k + . . + j N U Y Y Y N k X .                                                     ",
"                            O + 4 0 M H U U n k + X 4 0 M H Y E Y K n j + .                                                     ",
"                            . O h M U Y Y U n k + X j M U Y Y Y Y K n j + .                                                     ",
"                            . O h M U Y Y K n j + + h n U Y Y Y Y Y n j + .                                                     ",
"                            . X h n U Y Y Y n j + + k n U Y Y Y Y K n k X .                                                     ",
"                        . O 9 q M U Y U S Z d s r y | | D M U U B M n j + .                                                     ",
"                        . + j n U Y Y U n x i i ) ( +.@.A N U U n b b k + .                                                     ",
"                    O O 9 t z n n M M n s y p ) } o.%.@.A b M M b b b z e w + o                                                 ",
"                    . X j n b b b b b n y u i ( +.&.&.@.A b b b b b b b n j + .                                                 ",
"    . . . .         . X j n x b b c f a } X.o.X.[ [ #.%... .Z b b b b b b z t 9 + .                                             ",
"    o . . .         . + j n n n n n a ( O.&.&.O.( ( O.*.*.$.D M n n b b b b n j + .                                             ",
"            O o . + w j s.V.V.V.V.B.F d ' ` ` ] X.o.%.=.U.U.G.V.V.B.J b b b b z t 0 # o                                         ",
"            o . . X h J R.^.^.~.^.E.W n p i i ( O.&.%.=.(.~.^.^.^.E.L n n b z b b h + .                                         ",
"    . . . O p _ % X h J R.Q.H g h v s.N.F V c C ' ' ` ' j g g N W.~.J.B.J k ; - - ; 0 0 X .                                     ",
"    o . . O ' { > X k L J.R.2 . . = J.!.T z b x p i ) u o . . : J.~.^.W.L h + . . + z j O .                                     ",
"            , , 0 k s.N.N q + . . : J.Q.T b b b c A c.h.; . . X 0 M W.E.L j X X 0 g b h + .                                     ",
"            . . h J W.E.8 X . . X < J.E.L z z b z J (.W.4 + . . . 1 R.E.L j + @ k b z h + X                                     ",
"    . . . . . o h J R./.>.:.* @ y.N.~.W.w = = = = 6 R./.N.y.= + :.>.Q.E.L l g e : - - ; e 0 O .                                 ",
"    . . . . . X h S J.Q.m.,.4 < K.^.~.R.2 . . . . ; K.!.^.W.4 1 <.m.T.R.L v v h + . . # l j X .                                 ",
"            . X h n ! 2.Y.T.N.N.!.!.5.Q k q + X 0 j Q 3.(.~.N.N.T.Y.2.! M l : : e g t h b h X .                                 ",
"            . X h n n J R.^.~.^.~.W.T z b l @ + k n z J R./.~.~.^.E.T B b j + @ j z z z b h X .                                 ",
"            . X h B t.d.L.H.2.~ ! ! n b b z h g b b b n Q ~ ~ 2.H.L.d.t.B z j e - = = : z h + .                                 ",
"            O + h S f.n.b.d.I z z b n B M B B B n M n b v z z G d.n.n.d.G v n j + X . = l k + X                                 ",
"        . O q h z n T T T T n n v B 4.w.w.w.w.w.w.q.S b b b x x T T T T n b n z h t h t b v h e + O                             ",
"        . X h n b v v v v b n n B D e.j.p.g.g.j.j.i.L n B M Z Z B n v z v b v b b b B b b b b k O .                             ",
"        . X h b b b v v b B 4.e.w.w.p.g.g.g.j.g.j.g.w.w.w.w.w.w.w.q.A v b b n v b b b b b b B h X o                             ",
"        . . h b B B B B B D r.j.j.j.g.g.g.g.p.g.g.g.j.g.j.g.j.j.d.r.F B b b b b b b b b b b v h + +                             ",
"        . . h B 4.e.w.w.w.e.p.g.f.g.g.g.j.g.g.g.g.g.g.g.d.g.g.g.g.g.r.q.B v b b b b b v b b v x j e O .                         ",
"        . X g B w.j.j.d.j.j.j.j.j.j.j.j.j.j.p.p.j.j.j.j.j.j.j.j.g.g.j.r.L B b b b b b b v b v b n j X .                         ",
"        . . t A w.j.j.g.g.j.Z.A.S.S.S.S.S.Z.7.6.x.A.A.A.A.A.A.D.j.g.j.f.r.q.B b b b b b b b b v b h X .                         ",
"        . o j Z w.j.g.g.j.j.Z.D.S.F.F.P.A.x.7.6.x.D.F.F.F.F.Z.Z.j.j.j.j.j.r.S b b b b b b b b b b j X .                         ",
"        . . g B w.j.g.j.Z.Z.9.7.x.U.F.D.0.7.l.x.9.8.Z.F.F.G.8.8.c.S.j.j.j.e.A z b b b b b b b b b h X .                         ",
"        . X h B w.j.g.j.x.x.7.6.x.x.S.D.7.6.Z.D.8.6.Z.D.Z.x.6.6.x.S.j.j.j.r.L B b b b b b b b b b h X .                         ",
"        . X h B w.g.g.p.0.7.k.M.0.7.x.F.Z.Z.S.D.Z.Z.D.Z.9.7.x.M.5.5.p.g.j.j.r.q.B v b b b b b b N j X .                         ",
"        . X h B w.g.g.p.7.7.C.S.0.7.Z.P.F.P.F.F.F.F.F.D.7.7.Z.Z.7.5.p.g.j.j.j.r.S v b b b b b b v j X .                         ",
"        . X g B w.j.g.j.M.Z.F.F.Z.Z.F.F.F.F.F.F.F.F.F.F.Z.Z.F.S.Z.x.j.j.j.p.j.r.S b v b b b v b n j o .                         ",
"        . . t z q.i.g.j.S.F.F.P.F.F.F.F.F.F.F.F.F.F.F.F.F.F.F.F.P.F.j.j.j.j.j.r.S b b b b b b b v j X .                         ",
"            + $ z L e.j.S.F.F.F.F.F.F.F.F.F.F.F.P.F.F.F.F.F.F.F.F.S.j.j.j.j.j.r.S v b b b b b b b h X .                         ",
"            . X g B w.k.S.F.F.F.F.F.F.P.F.F.F.F.F.F.F.F.F.F.F.P.F.S.j.j.r.w.e.q.B x b b b b b b b h X .                         ",
"            . X h B w.j.S.F.F.F.F.F.F.F.F.F.F.F.P.F.F.F.F.P.F.F.F.S.j.r.L B S B n v v v b b b b N j o .                         ",
"            o O q l 4.i.k.l.S.F.F.F.F.F.F.F.F.F.F.F.P.F.F.F.F.S.z.k.r.q.B v v b v v n n b b b b n h X .                         ",
"                X + l B S L x.I.F.I.F.F.F.F.F.F.F.F.F.F.F.F.P.Z.T S B B n b v b x b n z v n v b n h X .                         ",
"                . o 0 g t z 0.i.u.i.D.F.F.F.P.F.F.F.F.F.F.S.z.i.S v b b b b b b b b v v n z n v h 0 . .                         ",
"                . . X . o . + + + ; h.I.P.F.F.F.F.F.F.F.F.Z.T n n B n b n v v b b b b b b b n j + . . .                         ",
"                . . . . - ; ; ; ; 4 5.i.a.k.S.F.F.P.F.D.l.i.S z t t t t z v n v b b b b n z t q : = $ -                         ",
"                    . + I ;.;.-.-.W : = z L M.I.I.F.P.Z.L n n l @ . O @ k n n n b n b b n j + @ k z z t O o                     ",
"                    . + N P G I ;.^ 4 < q k 4.y.p.a.a.i.H v h q < : . + e t t t t h z z g 0 - ; l b N j : =                     ",
"                        X X X # E 1.-.W = . X & z M M M n k + & W T & . . . . . . & l k + & k b b v b v v g X .                 ",
"                        . . X + m P -.-.8 < < < 0 g z b g q 2 8 / / 8 < < < < : . X q 0 X + 0 g v n v v b g o .                 ",
"                                . = E 1.-.-.;./ = + k l + = E -.;.1.;.;.;.;.;.E + . . . . . . @ z b v n N h X .                 ",
"                                . + m H G G G N + X 0 0 X + v G G G G G G G G m + . . . . . . + e t t t t w X .                 ",
"                                    X . . . . . . . . . . . . X . . . . . . X .                 . . . . . o                     ",
"                                    o o X . o X . . . . . o . . X . o o X . o .                 . o o . o X                     ",
"                                                                                                                                ",
"                                                                                                                                "
};
