/* XPM */
static char *_7d70b9b37a740c7ae83e01e419bcfd6VQH5zXHCV5W0IOgh[] = {
/* columns rows colors chars-per-pixel */
"64 64 182 2 ",
"   c None",
".  c #030403",
"X  c #050905",
"o  c #080B07",
"O  c #0B0B0A",
"+  c #070808",
"@  c #100F0F",
"#  c #0D110D",
"$  c #10140E",
"%  c #0C1113",
"&  c #0C191C",
"*  c #131313",
"=  c #181717",
"-  c #181619",
";  c #1C1B1B",
":  c #181817",
">  c #201F1E",
",  c #13200B",
"<  c #201F21",
"1  c #1A282C",
"2  c #232323",
"3  c #292727",
"4  c #2C2C2B",
"5  c #292728",
"6  c #30302D",
"7  c #2C2F30",
"8  c #302E31",
"9  c #353533",
"0  c #393735",
"q  c #3A3936",
"w  c #3D3C3A",
"e  c #413F3D",
"r  c #305A07",
"t  c #3A690E",
"y  c #407F04",
"u  c #427A0B",
"i  c #457A11",
"p  c #4A771C",
"a  c #42681C",
"s  c #41403D",
"d  c #4B7026",
"f  c #51653A",
"g  c #476329",
"h  c #464542",
"j  c #484744",
"k  c #4B4946",
"l  c #4E4C49",
"z  c #504F4B",
"x  c #485040",
"c  c #53524E",
"v  c #555A4A",
"b  c #575E4A",
"n  c #575652",
"m  c #585753",
"M  c #5B5955",
"N  c #58565A",
"B  c #5E5D59",
"V  c #575559",
"C  c #615F5A",
"Z  c #5F6651",
"A  c #606F4C",
"S  c #626B52",
"D  c #61615C",
"F  c #626958",
"G  c #657352",
"H  c #625E64",
"J  c #656461",
"K  c #696663",
"L  c #676867",
"P  c #6C6B65",
"I  c #676369",
"U  c #6B666A",
"Y  c #676968",
"T  c #696B6A",
"R  c #716C6B",
"E  c #706769",
"W  c #6F6B71",
"Q  c #726E74",
"!  c #767472",
"~  c #7B7A76",
"^  c #7A767C",
"/  c #787773",
"(  c #418203",
")  c #4B8D0C",
"_  c #47870A",
"`  c #4D910C",
"'  c #599A1B",
"]  c #5EA31D",
"[  c #60A51F",
"{  c #4A8225",
"}  c #62A720",
"|  c #75B934",
" . c #7CC438",
".. c #78AA48",
"X. c #82CB3C",
"o. c #80AE52",
"O. c #8EDA47",
"+. c #8CD745",
"@. c #88C150",
"#. c #93D651",
"$. c #94D851",
"%. c #92DC49",
"&. c #96E24C",
"*. c #99E64F",
"=. c #99E450",
"-. c #9DE853",
";. c #A2E75E",
":. c #A2E461",
">. c #7F7A81",
",. c #817C83",
"<. c #428D9C",
"1. c #65ACBA",
"2. c #5DBBCD",
"3. c #5FC2D5",
"4. c #7DDAEA",
"5. c #858286",
"6. c #8B8685",
"7. c #878189",
"8. c #8A8B88",
"9. c #9C9E8D",
"0. c #94948D",
"q. c #938E92",
"w. c #969293",
"e. c #999596",
"r. c #9C9A96",
"t. c #A0A28F",
"y. c #A2A491",
"u. c #ACAE99",
"i. c #AEB09B",
"p. c #B1B39E",
"a. c #B69BAB",
"s. c #AFAFA2",
"d. c #A7A7A7",
"f. c #B3B4A3",
"g. c #BCBDA7",
"h. c #BCBEAD",
"j. c #B6B8A1",
"k. c #BABAB9",
"l. c #CAABBF",
"z. c #C5A7BA",
"x. c #BFC1A9",
"c. c #BFCFAE",
"v. c #BFC1B0",
"b. c #C1C3AB",
"n. c #C3C4B4",
"m. c #C4C4BB",
"M. c #CCCBBD",
"N. c #C8C6BA",
"B. c #CFD0BF",
"V. c #D1D1BF",
"C. c #D8F5BC",
"Z. c #CDADC1",
"A. c #DCB7CF",
"S. c #DEB8D0",
"D. c #CFCFCD",
"F. c #CACBCB",
"G. c #C5C7C2",
"H. c #CFD0C0",
"J. c #D3D3C3",
"K. c #D7D8C5",
"L. c #D8D9C6",
"P. c #DBDCCA",
"I. c #D2D4CD",
"U. c #DEC3D5",
"Y. c #D7D7D6",
"T. c #DBDBDB",
"R. c #E5C7DB",
"E. c #DFE0CE",
"W. c #E0E1CE",
"Q. c #E0F2CC",
"!. c #E1E1DF",
"~. c #CCE3E5",
"^. c #D9EFF3",
"/. c #E4E4E3",
"(. c #EBEBEB",
"). c #E8E7E8",
"_. c #EAF5F5",
"`. c #F5F4F4",
"'. c #FBFAFB",
"]. c #FCFBFB",
"[. c #F2F9F9",
"{. c #ECF5E4",
/* pixels */
"                                                      5 * * * * 3             3 * =                                             ",
"                                                        . . . .                 . .                                             ",
"                                                      $ 4 4 4 4 $             * 4 4 $                                           ",
"                                                    X O l m n l O .         . O l l O .                                         ",
"                                                    X O j M D B 9 4 #       . # l c 9 4 O                                       ",
"                                                    . O l M Y Y M l O .     . O l n n j o .                                     ",
"                                                    . O l M Y Y M c 9 4 $ X . O l M n c 9 4 #                                   ",
"                                                    . O j M Y Y n n n l O . . # l m n n M j X .                                 ",
"                                                    . O l M Y Y J D M k O . . O l M D C M j + .                                 ",
"                                                    . O l M Y T Y Y N k + . . O l M Y Y M j + .                                 ",
"                                                    . O l m Y T T T J B q 4 X % z m Y Y J B q 6 # o                             ",
"                                                    . O l M Y T T T T Y M l + O l B Y T Y Y B k O .                             ",
"                                                    . O l M Y T T T T Y M k O O l B Y T T Y M j X .                             ",
"                                                    . O j M Y Y T T T Y M k O O l m Y T Y Y M j O .                             ",
"                                                    . O l M B Z T Y B F ....t r p d B D Y T J B s 9 O .                         ",
"                                                    X O j V V m Y Y N Z $.&.` ( y u v m Y T T Y M j O .                         ",
"                                                X # 0 w n n m M B M V S $.*. .| _ ( g g M B Z M n c s 9 O O                     ",
"                                                . O l M n n n n n n n S #.*.*.O.` ( t t v n V n n n M j X .                     ",
"                                            X O 9 s c n n n n n n Z o.@.&.%.} [  . . .| p d c n n n n j X .         X . . X     ",
"                                            X O l M n n n n M M M S $.-.=.O.) ` O.*.=.+._ _ Z M M M B l O X         X . . X     ",
"                                        X # q h c n n n n J k.Y.D.I.Q.C.;.&.X. .] ] ' ' f G G.D.D.D.Y.k.h 9 O X X #             ",
"                                        . O j n c n n M M R (.].].'.'.{.;.&.*.+.) y ( t M ! (.].].].]./.K j X . . .             ",
"                                    X O q w ; : = ; l K m.Y.'.).N h h x ' ' ' ' f f f G G.k.c h h J `./.J h O .     X . . X     ",
"                                    . O l c O . . O j T (.].[.T.: . . o t _ y i v V n ! `.T.* . . 2 !.T.P l O .   { X . . X     ",
"                                    . O l c h 0 + + k P ).).B w O . . : x.c.A b n n n R `.Y.= . . O s N F.k.l 0 $ ,             ",
"                                    X O j n c z @ @ l K )./.2 . . . O 4 ).(.J c c c z R `.T.2 O . . . 8 (./.K j X .             ",
"                                . O w e ; * = - w h z P (._.1.<.% = d.F.[.!.7 * * * * 9 ).`.G.d.O & <.1.[./.K j X . . . . X     ",
"                                . O j z @ . . O j n n K !._.4.2.1 3 /.].'.Y.> . . . . 3 !.'.].T.2 1 3.4.[.T.D j + . . . . X     ",
"                                . X l n h h s e ; : z M / 6.~.^.F.F.].(.8.! k q + + e l ! 0.`.`.F.F.^.~.5./ M j X .             ",
"                                . O j m c c n k @ O z M M R ).].'.'.'.!.K c m l O $ z n c R ).`.'.'.]./.K M n j + .             ",
"                                . + j z ; * * = e j c C a.Z.R.U.o.>.~ / M n n c h j c n n M / ~ ~ 6.R.R.Z.a.C j + .             ",
"                                X O l z $ . . @ l n n D Z.S.A.l.H V c c V m B Z C B C B B B c n n K l.A.S.z.C j O O             ",
"                            o O e j n n j s s j c m n M E R R R V c c n c D t.u.u.u.u.u.u.9.C n n M E R R E M n j e o X         ",
"                            . O j n n m M M M n m n n n n n M M N N C Z C P p.b.b.b.g.x.b.i.F M C M n n c n n n M s + .         ",
"                            . o j M n n M n n n n m n n n D y.u.s.u.u.u.u.u.b.b.x.g.x.x.x.g.u.u.u.9.C n n c c v m s o .         ",
"                            O @ k n n n n n n M n n n M C F p.b.z.b.b.b.b.b.g.b.b.x.x.x.x.x.b.b.b.p.F C C C C S M j o .         ",
"                        . O e j n n n n n n n n n n n C y.p.x.x.z.b.b.b.b.z.x.x.x.x.x.x.x.c.x.x.z.x.i.i.i.i.i.t.C j X .         ",
"                        . + l n n n n n n n n n m m C P p.b.x.x.c.b.b.b.b.b.c.x.g.g.b.b.b.b.b.z.b.b.b.b.c.z.x.i.C h . .         ",
"                        . + k m m n n n n n n n n C y.p.x.x.b.b.V.C.L.V.V.C.V.V.q.e.V.L.V.L.L.K.C.V.b.b.g.x.x.u.C h + .         ",
"                        . + k n n n n n n n n n n D p.b.b.b.b.b.V.V.P.P.P.P.V.M.0.e.M.K.L.E.P.P.H.V.b.b.x.x.x.u.C h + .         ",
"                        . + k n n n n n m n m n n D p.b.b.b.V.V.e.e.V.E.P.V.e.e.l.M.e.r.J.P.P.J.w.r.V.V.b.x.b.u.C h X .         ",
"                        . + k n n m n n n n n m D P p.b.b.b.V.M.w.w.N.K.P.J.w.w.L.V.q.e.J.P.J.N.q.r.V.V.b.b.b.u.C h . .         ",
"                        . + k n n m n m m n n D y.p.g.x.x.g.w.e.N.N.e.e.J.P.J.V.P.P.V.J.P.H.w.e.N.N.w.w.j.b.b.u.C j X .         ",
"                        . + k n n n n n n m c F p.b.b.x.x.p.q.e.J.J.w.e.J.P.P.P.P.P.P.P.P.H.w.r.L.H.q.0.g.b.b.u.C j + .         ",
"                        . o j m m n n n n m n D p.b.x.x.b.b.V.J.P.P.J.J.P.P.P.P.P.P.P.P.P.L.H.J.P.P.H.M.b.b.b.p.C j X .         ",
"                        . o j n n n n n n n n D p.b.x.x.b.b.L.P.P.P.P.P.P.P.P.P.P.P.P.P.P.P.P.P.P.P.P.L.b.g.p.t.n e X .         ",
"                        . + j M n n n n n n n C p.b.b.b.x.b.L.P.P.P.P.P.P.P.P.P.P.P.P.P.P.P.P.P.P.P.P.L.b.p.P c @ O             ",
"                        . + j M n m n n n n n C y.i.p.p.g.b.L.P.P.P.P.P.P.P.P.P.P.P.P.P.P.P.P.P.P.P.P.K.b.u.C j X .             ",
"                        . + j n n n n n n m n M C C C P p.b.P.P.P.P.P.P.P.P.P.P.P.P.P.P.P.P.P.P.P.P.P.L.n.p.D j + .             ",
"                        . o j n n n n n n n n n n n n C y.p.n.n.K.P.P.P.P.P.P.P.P.P.P.P.P.P.P.P.P.L.n.z.u.9.z w o X             ",
"                        . + l M n n n n n n n m n n n n B B D R H.P.P.P.P.P.P.P.P.P.P.P.P.P.P.P.E.N.P S C z O X                 ",
"                        . X q j n n n n n m n n n n n n n n n C f.m.K.P.P.P.P.P.P.P.P.P.P.K.f.s.s.t.z h h q X .                 ",
"                        . . . O k n n n m n n m n n n n n n m m B P H.P.P.P.P.P.P.P.P.P.E.h.> O # o . . + . . .                 ",
"                        * * * = w j c n n n n n n n n c j h h h n J f.n.P.P.P.P.P.K.n.k.f.q.4 ; ; ; ; - . . X +                 ",
"                    . o j c z l @ O l n n n m m M n M z @ . . O l M N T H.P.P.P.P.M.P c @ ; Q ,.>.>.>.W O .                     ",
"                    = = l n n z ; = w h n n h s h s h w + . ; 3 e j n D f.h.h.h.s.9.l w < 7 >.,.I I I N O .                     ",
"                . O h n n n n n n l O O l z % . . . . . . @ R Q $ O l n M C C c * X . * Q ,.,.Q @ X X O                         ",
"                . X j n n n n n h q O + q w O X ; < > < < 4 ^ ^ 4 3 e h n c s w 3 < < 8 ^ ,.I N * . . X                         ",
"                . + j M m n n z * . . . . . . O W ,.,.,.,.,.,.7.,.Q * O z z O = Q ,.,.,.,.Q * +                                 ",
"                . X q s s e s w O . . . . . . O N H H H H H H H H V O + 0 0 + O N H H H H N @ .                                 ",
"                    o . . . . .                 . . . . . . + . . . . . . . . . . . X X . O                                     ",
"                    o . . X X X                 + X X X X X . X X . . . . X . . X X . . . o                                     ",
"                                                                                                                                ",
"                                                                                                                                "
};
